<?xml version="1.0" encoding="utf-8"?>
<!-- Generator: Adobe Illustrator 16.0.0, SVG Export Plug-In . SVG Version: 6.00 Build 0)  -->
<!DOCTYPE svg PUBLIC "-//W3C//DTD SVG 1.1//EN" "http://www.w3.org/Graphics/SVG/1.1/DTD/svg11.dtd">
<svg version="1.1" id="Layer_1" xmlns="http://www.w3.org/2000/svg" xmlns:xlink="http://www.w3.org/1999/xlink" x="0px" y="0px"
	 width="155px" height="148px" viewBox="0 0 155 148" enable-background="new 0 0 155 148" xml:space="preserve">
<g>
	<g>
		<g>
			<path fill="#499CD5" d="M146.545,147.344c-4.15,0.004-7.53-3.368-7.535-7.518c-0.004-4.152,3.368-7.533,7.519-7.537
				c4.149-0.006,7.529,3.369,7.537,7.52C154.068,143.958,150.694,147.34,146.545,147.344z M146.531,134.889
				c-2.716,0.003-4.925,2.215-4.922,4.934c0.002,2.719,2.216,4.926,4.932,4.924c2.717-0.004,4.927-2.219,4.925-4.935
				C151.461,137.096,149.249,134.887,146.531,134.889z"/>
		</g>
	</g>
	<g>			
		<rect x="21.552" y="0.224" transform="matrix(0.7073 0.7069 -0.7069 0.7073 10.5899 -14.7355)" fill="#499CD5" width="3.072" height="10.39"/>
		<rect x="4.183" y="17.628" transform="matrix(0.7077 0.7065 -0.7065 0.7077 17.7962 2.6309)" fill="#499CD5" width="3.071" height="10.393"/>
		<rect x="0.503" y="3.899" transform="matrix(0.7078 0.7064 -0.7064 0.7078 5.5064 -2.4383)" fill="#499CD5" width="10.396" height="3.076"/>
		<rect x="17.908" y="21.271" transform="matrix(0.7078 0.7064 -0.7064 0.7078 22.8646 -9.6593)" fill="#499CD5" width="10.398" height="3.072"/>
	</g>
	<g>
		<path fill="#3F4E7B" d="M79.805,123.555c-7.773,0.008-14.104-6.312-14.112-14.086c-0.009-7.775,6.307-14.105,14.083-14.119
			c7.774-0.008,14.111,6.311,14.115,14.086C93.899,117.213,87.58,123.547,79.805,123.555z M79.781,100.219
			c-5.092,0.004-9.228,4.152-9.228,9.244c0.009,5.092,4.158,9.227,9.25,9.223c5.086,0,9.226-4.15,9.217-9.242
			C89.017,104.352,84.873,100.219,79.781,100.219z"/>
	</g>
	<g>
		<path fill="#499CD5" d="M136.896,54.417l-9.66-9.641l9.641-9.662l9.661,9.641L136.896,54.417z M130.912,44.771l5.982,5.971
				l5.967-5.982l-5.979-5.967L130.912,44.771z"/>
	</g>
</g>
</svg>
