<?xml version="1.0" encoding="utf-8"?>
<!-- Generator: Adobe Illustrator 16.0.0, SVG Export Plug-In . SVG Version: 6.00 Build 0)  -->
<!DOCTYPE svg PUBLIC "-//W3C//DTD SVG 1.1//EN" "http://www.w3.org/Graphics/SVG/1.1/DTD/svg11.dtd">
<svg version="1.1" id="Layer_1" xmlns="http://www.w3.org/2000/svg" xmlns:xlink="http://www.w3.org/1999/xlink" x="0px" y="0px"
	 width="86px" height="244px" viewBox="0 0 86 244" enable-background="new 0 0 86 244" xml:space="preserve">
<g>
	<g>
		<rect x="49.79" y="0.445" transform="matrix(0.7073 0.7069 -0.7069 0.7073 19.0122 -34.6339)" fill="#499DD6" width="3.072" height="10.39"/>
		<rect x="32.421" y="17.849" transform="matrix(0.7077 0.7065 -0.7065 0.7077 26.205 -17.2541)" fill="#499DD6" width="3.071" height="10.393"/>
		<rect x="28.741" y="4.12" transform="matrix(0.7078 0.7064 -0.7064 0.7078 13.9132 -22.3214)" fill="#499DD6" width="10.396" height="3.076"/>
		<rect x="46.147" y="21.491" transform="matrix(0.7078 0.7064 -0.7064 0.7078 31.2727 -29.5437)" fill="#499DD6" width="10.398" height="3.072"/>
	</g>
	<g>
		<path fill="#3F4E7B" d="M15.087,243.123c-7.773,0.008-14.104-6.312-14.112-14.086c-0.009-7.775,6.307-14.105,14.083-14.119
			c7.774-0.008,14.111,6.311,14.115,14.086C29.182,236.781,22.862,243.115,15.087,243.123z M15.063,219.787
			c-5.092,0.004-9.228,4.152-9.228,9.244c0.009,5.092,4.158,9.227,9.25,9.223c5.086,0,9.226-4.15,9.217-9.242
			C24.299,223.92,20.155,219.787,15.063,219.787z"/>
	</g>
	<g>
		<path fill="#499DD6" d="M75.384,176.264l-9.66-9.641l9.641-9.662l9.661,9.641L75.384,176.264z M69.399,166.617l5.982,5.971
			l5.967-5.982l-5.979-5.967L69.399,166.617z"/>
	</g>
</g>
</svg>
