<?xml version="1.0" encoding="utf-8"?>
<!-- Generator: Adobe Illustrator 16.0.0, SVG Export Plug-In . SVG Version: 6.00 Build 0)  -->
<!DOCTYPE svg PUBLIC "-//W3C//DTD SVG 1.1//EN" "https://www.w3.org/Graphics/SVG/1.1/DTD/svg11.dtd">
<svg version="1.1" id="Layer_1" xmlns="https://www.w3.org/2000/svg" xmlns:xlink="https://www.w3.org/1999/xlink" x="0px" y="0px"
	 width="157px" height="145px" viewBox="0 0 157 145" enable-background="new 0 0 157 145" xml:space="preserve">
<g>
	<g>
		<path fill="#FFFFFF" d="M148.669,144.426c-4.15,0.004-7.53-3.369-7.535-7.518c-0.004-4.152,3.368-7.533,7.519-7.537
			c4.149-0.006,7.529,3.369,7.537,7.52C156.192,141.039,152.818,144.422,148.669,144.426z M148.655,131.971
			c-2.716,0.002-4.925,2.215-4.922,4.934c0.002,2.719,2.216,4.926,4.932,4.924c2.717-0.004,4.927-2.219,4.925-4.936
			C153.585,134.178,151.373,131.969,148.655,131.971z"/>
		<animate attributeType="CSS" attributeName="opacity" 
			from="1" 
			to="0" 
			dur="2s" 
			values="1; 0; 1"
			keyTimes="0; 0.5; 1"
			repeatCount="indefinite" />
	</g>
	<g>
		<rect x="21.428" y="0.142" transform="matrix(0.7073 0.7069 -0.7069 0.7073 10.4956 -14.6718)" fill="#49A3DC" width="3.072" height="10.39"/>
		<rect x="4.058" y="17.546" transform="matrix(0.7077 0.7065 -0.7065 0.7077 17.702 2.6946)" fill="#49A3DC" width="3.071" height="10.393"/>
		<rect x="0.379" y="3.817" transform="matrix(0.7078 0.7064 -0.7064 0.7078 5.4122 -2.3747)" fill="#49A3DC" width="10.396" height="3.076"/>
		<rect x="17.784" y="21.189" transform="matrix(0.7078 0.7064 -0.7064 0.7078 22.7704 -9.5956)" fill="#49A3DC" width="10.398" height="3.072"/>
		<animate attributeType="CSS" attributeName="opacity" 
			from="1" 
			to="0" 
			dur="2s" 
			values="0; 1; 0"
			keyTimes="0; 0.5; 1"
			repeatCount="indefinite" />
	</g>
	<g>
		<path fill="#FFFFFF" d="M61.94,132.41c-7.773,0.006-14.104-6.312-14.112-14.086c-0.009-7.777,6.307-14.107,14.083-14.119
			c7.774-0.008,14.111,6.309,14.115,14.084C76.035,126.068,69.716,132.402,61.94,132.41z M61.917,109.074
			c-5.092,0.004-9.228,4.15-9.228,9.242c0.009,5.092,4.158,9.229,9.25,9.223c5.086,0,9.226-4.148,9.217-9.24
			C71.152,113.205,67.009,109.072,61.917,109.074z"/>
		<animate attributeType="CSS" attributeName="opacity" 
			from="1" 
			to="0" 
			dur="2s" 
			values="0; 1; 0"
			keyTimes="0; 0.5; 1"
			repeatCount="indefinite" />
	</g>
	<g>
		<path fill="#49A3DC" d="M121.261,65.816l-9.66-9.641l9.641-9.662l9.661,9.641L121.261,65.816z M115.276,56.169l5.982,5.971
			l5.967-5.982l-5.979-5.967L115.276,56.169z"/>
		<animate attributeType="CSS" attributeName="opacity" 
			from="1" 
			to="0" 
			dur="2s" 
			values="1; 0; 1"
			keyTimes="0; 0.5; 1"
			repeatCount="indefinite" />
	</g>
</g>
</svg>
