<?xml version="1.0" encoding="utf-8"?>
<!-- Generator: Adobe Illustrator 16.0.0, SVG Export Plug-In . SVG Version: 6.00 Build 0)  -->
<!DOCTYPE svg PUBLIC "-//W3C//DTD SVG 1.1//EN" "https://www.w3.org/Graphics/SVG/1.1/DTD/svg11.dtd">
<svg version="1.1" id="Layer_1" xmlns="https://www.w3.org/2000/svg" xmlns:xlink="https://www.w3.org/1999/xlink" x="0px" y="0px"
	 width="72px" height="77px" viewBox="0 0 72 77" enable-background="new 0 0 72 77" xml:space="preserve">
<g>
	<g>			
		<rect x="64.232" y="0.07" transform="matrix(0.7074 0.7068 -0.7068 0.7074 23.3804 -44.9018)" fill="#3F4E7B" width="3.382" height="11.437"/>
		<rect x="45.119" y="19.223" transform="matrix(0.7083 0.706 -0.706 0.7083 31.2646 -25.7684)" fill="#3F4E7B" width="3.381" height="11.44"/>
		<rect x="41.068" y="4.118" transform="matrix(0.7078 0.7064 -0.7064 0.7078 17.7757 -31.3547)" fill="#3F4E7B" width="11.441" height="3.382"/>
		<rect x="60.225" y="23.233" transform="matrix(0.7077 0.7066 -0.7066 0.7077 36.8883 -39.3076)" fill="#3F4E7B" width="11.44" height="3.382"/>
		<animate attributeType="CSS" attributeName="opacity" 
			from="1" 
			to="0" 
			dur="2s" 
			values="1; 0; 1"
			keyTimes="0; 0.5; 1"
			repeatCount="indefinite" />

	</g>
	<g>
		<path fill="#49A4DD" d="M9.759,76.455c-4.927,0.005-8.94-4-8.946-8.926c-0.004-4.93,3.999-8.943,8.927-8.948
			c4.927-0.007,8.939,4,8.948,8.928C18.691,72.434,14.686,76.45,9.759,76.455z M9.743,61.668c-3.225,0.002-5.847,2.629-5.844,5.857
			c0.003,3.228,2.631,5.848,5.854,5.846c3.227-0.005,5.85-2.635,5.848-5.859C15.596,64.288,12.97,61.666,9.743,61.668z"/>
		<animate attributeType="CSS" attributeName="opacity" 
			from="1" 
			to="0" 
			dur="2s" 
			values="0; 1; 0"
			keyTimes="0; 0.5; 1"
			repeatCount="indefinite" />
	</g>
</g>
</svg>
