<?xml version="1.0" encoding="utf-8"?>
<!-- Generator: Adobe Illustrator 16.0.0, SVG Export Plug-In . SVG Version: 6.00 Build 0)  -->
<!DOCTYPE svg PUBLIC "-//W3C//DTD SVG 1.1//EN" "https://www.w3.org/Graphics/SVG/1.1/DTD/svg11.dtd">
<svg version="1.1" id="Layer_1" xmlns="https://www.w3.org/2000/svg" xmlns:xlink="https://www.w3.org/1999/xlink" x="0px" y="0px"
	 width="143px" height="160px" viewBox="0 0 143 160" enable-background="new 0 0 143 160" xml:space="preserve">
<g>
	<g>			
		<rect x="43.859" y="0.888" transform="matrix(0.7074 0.7068 -0.7068 0.7074 17.7863 -30.2843)" fill="#3F4E7B" width="3.225" height="10.906"/>
		<rect x="25.632" y="19.152" transform="matrix(0.7079 0.7063 -0.7063 0.7079 25.3397 -12.0554)" fill="#3F4E7B" width="3.224" height="10.908"/>
		<rect x="21.769" y="4.748" transform="matrix(0.7078 0.7064 -0.7064 0.7078 12.448 -17.3726)" fill="#3F4E7B" width="10.91" height="3.226"/>
		<rect x="40.039" y="22.975" transform="matrix(0.7077 0.7065 -0.7065 0.7077 30.667 -24.9538)" fill="#3F4E7B" width="10.909" height="3.226"/>
	</g>
	<g>
		<path fill="#499CD5" d="M132.918,55.854c-5.147,0.004-9.345-4.184-9.353-9.33c-0.004-5.152,4.183-9.35,9.334-9.355
			c5.149-0.004,9.344,4.182,9.352,9.332C142.255,51.655,138.069,55.851,132.918,55.854z M132.902,40.396
			c-3.372,0.004-6.114,2.75-6.108,6.123c0.004,3.375,2.749,6.113,6.12,6.111c3.372-0.004,6.115-2.752,6.11-6.125
			C139.02,43.134,136.273,40.396,132.902,40.396z"/>
	</g>
	<g>
		<path fill="#FFFFFF" d="M12.739,108.419L0.749,96.458l11.964-11.99L24.7,96.435L12.739,108.419z M5.312,96.45l7.424,7.408
			l7.408-7.42l-7.426-7.41L5.312,96.45z"/>
	</g>
	<g>
		<path fill="#FFFFFF" d="M112.375,158.659l-11.989-11.963l11.965-11.988l11.989,11.961L112.375,158.659z M104.947,146.688
			l7.424,7.41l7.406-7.424l-7.421-7.406L104.947,146.688z"/>
	</g>
</g>
</svg>
