<?xml version="1.0" encoding="utf-8"?>
<!-- Generator: Adobe Illustrator 16.0.0, SVG Export Plug-In . SVG Version: 6.00 Build 0)  -->
<!DOCTYPE svg PUBLIC "-//W3C//DTD SVG 1.1//EN" "https://www.w3.org/Graphics/SVG/1.1/DTD/svg11.dtd">
<svg version="1.1" id="Layer_1" xmlns="https://www.w3.org/2000/svg" xmlns:xlink="https://www.w3.org/1999/xlink" x="0px" y="0px"
	 width="55px" height="85px" viewBox="0 0 55 85" enable-background="new 0 0 55 85" xml:space="preserve">
<g>
	<g>			
		<rect x="23.025" y="55.77" transform="matrix(0.7074 0.7068 -0.7068 0.7074 50.4819 0.4994)" fill="#499CD5" width="3.225" height="10.906"/>
		<rect x="4.798" y="74.035" transform="matrix(0.7079 0.7063 -0.7063 0.7079 58.0198 18.6939)" fill="#499CD5" width="3.224" height="10.908"/>
		<rect x="0.935" y="59.631" transform="matrix(0.7078 0.7064 -0.7064 0.7078 45.1295 13.3799)" fill="#499CD5" width="10.91" height="3.226"/>
		<rect x="19.205" y="77.858" transform="matrix(0.7077 0.7065 -0.7065 0.7077 63.3515 5.8054)" fill="#499CD5" width="10.909" height="3.226"/>
	</g>
	<g>
		<path fill="#FFFFFF" d="M41.649,24.462l-11.99-11.961l11.964-11.99L53.61,12.478L41.649,24.462z M34.222,12.493l7.424,7.406
			l7.408-7.418l-7.426-7.41L34.222,12.493z"/>
	</g>
</g>
</svg>
