<?xml version="1.0" encoding="utf-8"?>
<!-- Generator: Adobe Illustrator 16.0.0, SVG Export Plug-In . SVG Version: 6.00 Build 0)  -->
<!DOCTYPE svg PUBLIC "-//W3C//DTD SVG 1.1//EN" "https://www.w3.org/Graphics/SVG/1.1/DTD/svg11.dtd">
<svg version="1.1" id="Layer_1" xmlns="https://www.w3.org/2000/svg" xmlns:xlink="https://www.w3.org/1999/xlink" x="0px" y="0px"
	 width="42px" height="42px" viewBox="0 0 42 42" enable-background="new 0 0 42 42" xml:space="preserve">
<g>
	<path fill="#FFFFFF" d="M41.164,34.275c0,3.805-3.084,6.889-6.892,6.889H7.728c-3.805,0-6.892-3.084-6.892-6.889V7.729
		c0-3.807,3.087-6.893,6.892-6.893h26.545c3.808,0,6.892,3.086,6.892,6.893V34.275z"/>
	<path fill="#3F4E7B" d="M28.508,41.164V25.682h5.199l0.775-6.033h-5.975v-3.855c0-1.746,0.483-2.936,2.99-2.936l3.195-0.002V7.459
		c-0.555-0.074-2.449-0.238-4.657-0.238c-4.605,0-7.759,2.811-7.759,7.977v4.451h-5.212v6.033h5.212v15.482H28.508L28.508,41.164z"
		/>
</g>
</svg>
