<?xml version="1.0" encoding="utf-8"?>
<!-- Generator: Adobe Illustrator 16.0.0, SVG Export Plug-In . SVG Version: 6.00 Build 0)  -->
<!DOCTYPE svg PUBLIC "-//W3C//DTD SVG 1.1//EN" "https://www.w3.org/Graphics/SVG/1.1/DTD/svg11.dtd">
<svg version="1.1" id="Layer_1" xmlns="https://www.w3.org/2000/svg" xmlns:xlink="https://www.w3.org/1999/xlink" x="0px" y="0px"
	 width="42px" height="42px" viewBox="0 0 42 42" enable-background="new 0 0 42 42" xml:space="preserve">
<g>
	<path fill="#FFFFFF" d="M41.164,34.273c0,3.805-3.086,6.891-6.889,6.891H7.727c-3.808,0-6.892-3.086-6.892-6.891V7.729
		c0-3.807,3.084-6.893,6.892-6.893h26.548c3.803,0,6.889,3.086,6.889,6.893V34.273z"/>
	<g>
		<g>
			<path fill="#3F4E7B" d="M27.422,36.996H14.58c-5.702,0-10.339-4.637-10.339-10.338V15.342c0-5.701,4.637-10.34,10.339-10.34
				h12.842c5.699,0,10.338,4.639,10.338,10.34v11.316C37.76,32.359,33.121,36.996,27.422,36.996z M14.58,7.301
				c-4.436,0-8.041,3.607-8.041,8.041v11.316c0,4.434,3.605,8.041,8.041,8.041h12.842c4.434,0,8.039-3.607,8.039-8.041V15.342
				c0-4.434-3.605-8.041-8.039-8.041H14.58z"/>
		</g>
		<g>
			<path fill="#3F4E7B" d="M21.001,30.203c-5.074,0-9.201-4.129-9.201-9.203s4.127-9.201,9.201-9.201c5.073,0,9.2,4.127,9.2,9.201
				S26.074,30.203,21.001,30.203z M21.001,14.096c-3.809,0-6.906,3.098-6.906,6.904c0,3.809,3.098,6.906,6.906,6.906
				c3.805,0,6.903-3.098,6.903-6.906C27.904,17.193,24.807,14.096,21.001,14.096z"/>
		</g>
		<g>
			<path fill="#3F4E7B" d="M31.971,12.084c0,1.051-0.854,1.906-1.906,1.906c-1.059,0-1.912-0.855-1.912-1.906
				c0-1.057,0.854-1.912,1.912-1.912C31.117,10.172,31.971,11.027,31.971,12.084z"/>
		</g>
	</g>
</g>
</svg>
