<?xml version="1.0" encoding="utf-8"?>
<!-- Generator: Adobe Illustrator 16.0.0, SVG Export Plug-In . SVG Version: 6.00 Build 0)  -->
<!DOCTYPE svg PUBLIC "-//W3C//DTD SVG 1.1//EN" "https://www.w3.org/Graphics/SVG/1.1/DTD/svg11.dtd">
<svg version="1.1" id="Layer_1" xmlns="https://www.w3.org/2000/svg" xmlns:xlink="https://www.w3.org/1999/xlink" x="0px" y="0px"
	 width="42px" height="42px" viewBox="0 0 42 42" enable-background="new 0 0 42 42" xml:space="preserve">
<g>
	<path fill="#FFFFFF" d="M41.164,34.274c0,3.807-3.084,6.889-6.893,6.889H7.728c-3.808,0-6.892-3.082-6.892-6.889V7.728
		c0-3.807,3.084-6.891,6.892-6.891h26.543c3.809,0,6.893,3.084,6.893,6.891V34.274z"/>
	<g id="S6Aq9X_1_">
		<g>
			<g>
				<path fill-rule="evenodd" clip-rule="evenodd" fill="#3F4E7B" d="M20.616,7.349c3.566,0.025,6.57,0.705,9.361,2.232
					c2.395,1.309,4.359,3.074,5.705,5.477c1.127,2.01,1.596,4.168,1.363,6.463c-0.195,1.934-0.936,3.664-2.055,5.238
					c-1.195,1.684-2.648,3.119-4.223,4.439c-2.584,2.166-5.338,4.096-8.238,5.811c-0.58,0.342-1.196,0.627-1.808,0.914
					c-0.188,0.086-0.41,0.111-0.622,0.121c-0.302,0.014-0.509-0.152-0.509-0.457c0-0.387,0.069-0.773,0.107-1.16
					c0.057-0.574,0.13-1.154,0.163-1.732c0.039-0.652-0.317-1.064-0.913-1.242c-0.526-0.156-1.07-0.254-1.612-0.354
					c-3.014-0.572-5.746-1.754-8.086-3.762c-2.032-1.744-3.473-3.877-4.069-6.514c-0.662-2.92-0.152-5.658,1.399-8.205
					c1.319-2.158,3.163-3.768,5.352-4.988c2.077-1.154,4.309-1.842,6.658-2.125C19.393,7.407,20.203,7.38,20.616,7.349z
					 M20.931,19.952c0.013-0.004,0.029-0.012,0.047-0.018c0.021,0.029,0.044,0.057,0.065,0.084c0.687,0.947,1.375,1.896,2.06,2.842
					c0.357,0.496,0.711,0.996,1.074,1.488c0.227,0.303,0.574,0.41,0.918,0.299c0.404-0.133,0.594-0.377,0.6-0.795
					c0.006-0.287,0.004-0.574,0.004-0.861c0-1.82-0.004-3.639,0-5.461c0.002-0.264-0.053-0.5-0.25-0.684
					c-0.26-0.244-0.57-0.301-0.898-0.166c-0.334,0.137-0.5,0.4-0.502,0.76c-0.002,1.217,0,2.432,0,3.648c0,0.07,0,0.146,0,0.217
					c-0.096-0.045-0.137-0.096-0.174-0.148c-0.545-0.727-1.088-1.451-1.631-2.176c-0.502-0.672-1.003-1.346-1.511-2.014
					c-0.414-0.541-1.128-0.488-1.427,0.109c-0.066,0.133-0.1,0.295-0.1,0.445c-0.006,2.092-0.009,4.188,0.004,6.277
					c0,0.186,0.076,0.396,0.18,0.551c0.213,0.311,0.637,0.418,0.986,0.303c0.348-0.117,0.551-0.402,0.553-0.816
					c0.004-1.215,0.002-2.432,0.002-3.646C20.931,20.108,20.931,20.032,20.931,19.952z M28.541,18.274
					c0.77,0,1.514,0.01,2.258-0.006c0.188-0.006,0.396-0.059,0.561-0.154c0.307-0.178,0.422-0.568,0.316-0.91
					c-0.115-0.375-0.406-0.59-0.832-0.592c-1.033-0.004-2.066-0.006-3.096,0c-0.539,0.004-0.867,0.34-0.867,0.875
					c-0.004,2.105-0.002,4.215-0.002,6.322c0.002,0.568,0.322,0.885,0.896,0.885c1.016,0.002,2.033,0.002,3.049,0
					c0.537,0,0.883-0.33,0.885-0.828c0-0.523-0.375-0.896-0.91-0.896c-0.67-0.004-1.34-0.002-2.012-0.002c-0.078,0-0.156,0-0.242,0
					c0-0.492,0-0.959,0-1.451c0.094,0,0.172,0,0.25,0c0.664,0,1.328,0.004,1.99-0.004c0.143-0.002,0.297-0.021,0.428-0.076
					c0.361-0.158,0.57-0.611,0.482-0.998c-0.086-0.387-0.412-0.645-0.838-0.646c-0.691-0.006-1.385-0.002-2.078-0.002
					c-0.078,0-0.154-0.01-0.238-0.012C28.541,19.272,28.541,18.788,28.541,18.274z M12.371,22.968c0-0.119,0-0.205,0-0.293
					c0-1.725,0.003-3.447-0.002-5.172c-0.004-0.535-0.351-0.895-0.836-0.893c-0.512,0.006-0.889,0.377-0.889,0.896
					c-0.002,2.102-0.002,4.203,0,6.303c0,0.506,0.363,0.881,0.868,0.881c1.07,0.01,2.138,0.014,3.207-0.002
					c0.177-0.004,0.378-0.082,0.524-0.188c0.288-0.207,0.368-0.586,0.245-0.936c-0.129-0.367-0.425-0.594-0.792-0.596
					C13.93,22.966,13.167,22.968,12.371,22.968z M16.31,20.649L16.31,20.649c-0.001,1.045-0.005,2.09,0.002,3.137
					c0.002,0.135,0.019,0.281,0.072,0.406c0.152,0.359,0.61,0.576,0.992,0.492c0.405-0.088,0.662-0.426,0.662-0.896
					c0.003-2.086,0.003-4.168-0.002-6.252c0-0.137-0.025-0.279-0.072-0.408c-0.133-0.369-0.508-0.566-0.905-0.498
					c-0.436,0.074-0.745,0.391-0.747,0.795C16.305,18.501,16.31,19.573,16.31,20.649z"/>
				<path fill-rule="evenodd" clip-rule="evenodd" fill="#FFFFFF" d="M20.931,19.952c0,0.08,0,0.156,0,0.238
					c0,1.215,0.002,2.432-0.002,3.646c-0.002,0.414-0.205,0.699-0.553,0.816c-0.35,0.115-0.773,0.008-0.986-0.303
					c-0.104-0.154-0.18-0.365-0.18-0.551c-0.013-2.09-0.01-4.186-0.004-6.277c0-0.15,0.033-0.312,0.1-0.445
					c0.299-0.598,1.013-0.65,1.427-0.109c0.508,0.668,1.009,1.342,1.511,2.014c0.543,0.725,1.086,1.449,1.631,2.176
					c0.037,0.053,0.078,0.104,0.174,0.148c0-0.07,0-0.146,0-0.217c0-1.217-0.002-2.432,0-3.648c0.002-0.359,0.168-0.623,0.502-0.76
					c0.328-0.135,0.639-0.078,0.898,0.166c0.197,0.184,0.252,0.42,0.25,0.684c-0.004,1.822,0,3.641,0,5.461
					c0,0.287,0.002,0.574-0.004,0.861c-0.006,0.418-0.195,0.662-0.6,0.795c-0.344,0.111-0.691,0.004-0.918-0.299
					c-0.363-0.492-0.717-0.992-1.074-1.488c-0.686-0.945-1.373-1.895-2.06-2.842c-0.021-0.027-0.044-0.055-0.065-0.084
					C20.96,19.94,20.944,19.948,20.931,19.952z"/>
				<path fill-rule="evenodd" clip-rule="evenodd" fill="#FFFFFF" d="M28.541,18.274c0,0.514,0,0.998,0,1.504
					c0.084,0.002,0.16,0.012,0.238,0.012c0.693,0,1.387-0.004,2.078,0.002c0.426,0.002,0.752,0.26,0.838,0.646
					c0.088,0.387-0.121,0.84-0.482,0.998c-0.131,0.055-0.285,0.074-0.428,0.076c-0.662,0.008-1.326,0.004-1.99,0.004
					c-0.078,0-0.156,0-0.25,0c0,0.492,0,0.959,0,1.451c0.086,0,0.164,0,0.242,0c0.672,0,1.342-0.002,2.012,0.002
					c0.535,0,0.91,0.373,0.91,0.896c-0.002,0.498-0.348,0.828-0.885,0.828c-1.016,0.002-2.033,0.002-3.049,0
					c-0.574,0-0.895-0.316-0.896-0.885c0-2.107-0.002-4.217,0.002-6.322c0-0.535,0.328-0.871,0.867-0.875
					c1.029-0.006,2.062-0.004,3.096,0c0.426,0.002,0.717,0.217,0.832,0.592c0.105,0.342-0.01,0.732-0.316,0.91
					c-0.164,0.096-0.373,0.148-0.561,0.154C30.055,18.284,29.311,18.274,28.541,18.274z"/>
				<path fill-rule="evenodd" clip-rule="evenodd" fill="#FFFFFF" d="M12.371,22.968c0.796,0,1.56-0.002,2.326,0.002
					c0.367,0.002,0.663,0.229,0.792,0.596c0.123,0.35,0.043,0.729-0.245,0.936c-0.146,0.105-0.348,0.184-0.524,0.188
					c-1.069,0.016-2.137,0.012-3.207,0.002c-0.505,0-0.868-0.375-0.868-0.881c-0.002-2.1-0.002-4.201,0-6.303
					c0-0.52,0.377-0.891,0.889-0.896c0.485-0.002,0.832,0.357,0.836,0.893c0.005,1.725,0.002,3.447,0.002,5.172
					C12.371,22.763,12.371,22.849,12.371,22.968z"/>
				<path fill-rule="evenodd" clip-rule="evenodd" fill="#FFFFFF" d="M16.31,20.649c0-1.076-0.005-2.148,0.002-3.225
					c0.002-0.404,0.312-0.721,0.747-0.795c0.397-0.068,0.772,0.129,0.905,0.498c0.047,0.129,0.072,0.271,0.072,0.408
					c0.005,2.084,0.005,4.166,0.002,6.252c0,0.471-0.257,0.809-0.662,0.896c-0.382,0.084-0.84-0.133-0.992-0.492
					c-0.054-0.125-0.07-0.271-0.072-0.406C16.305,22.739,16.309,21.694,16.31,20.649L16.31,20.649z"/>
			</g>
		</g>
	</g>
</g>
</svg>
