<?xml version="1.0" encoding="utf-8"?>
<!-- Generator: Adobe Illustrator 22.0.1, SVG Export Plug-In . SVG Version: 6.00 Build 0)  -->
<svg version="1.1" id="Layer_1" xmlns="http://www.w3.org/2000/svg" xmlns:xlink="http://www.w3.org/1999/xlink" x="0px" y="0px"
	 viewBox="0 0 271 81" style="enable-background:new 0 0 271 81;" xml:space="preserve">
<style type="text/css">
	.st0{fill:#499BD4;}
</style>
<title>logo_neo</title>
<desc>Created with Sketch.</desc>
<g id="Page-1">
	<g id="Desktop" transform="translate(-377.000000, -472.000000)">
		<g id="logo_neo" transform="translate(377.000000, 472.000000)">
			<path id="Shape" class="st0" d="M260.5,78.1v-4.4h-1.7v-0.9h4.5v0.9h-1.7v4.4H260.5z M264.1,78.1v-5.4h1.7l1,3.7l1-3.7h1.7v5.4
				h-1.1v-4.2l-1.1,4.2h-1.1l-1.1-4.2v4.2H264.1z"/>
			<path id="Shape_1_" class="st0" d="M229.4,0.6c-11.4,0-21.1,3.6-29.6,11c-7.2,6.3-12.8,14.6-18.2,22.7
				c-11.7,17.5-22.7,33.9-50,33.9c-13.2,0.1-24.6-8.9-27.7-21.7h59.8c2.3,0,4.5-0.9,6.1-2.6s2.4-3.9,2.3-6.2c0,0,0-0.1,0-0.1
				c-0.1-1.1-0.2-2.1-0.4-3.2c-2.3-13.8-11.6-25.5-24.7-30.7c-15.2-6.2-32.6-2.8-44.3,8.6c-7.2,7-11.4,16.5-11.8,26.5
				c-1-1.4-1.9-2.8-2.9-4.3c-5.4-8.1-10.9-16.4-18.2-22.7c-8.5-7.4-18.3-11-29.6-11C21,0.9,5.1,13.6,1,31.6C1,31.8,0.9,32,0.9,32.2
				c-0.1,0.5-0.2,1.1-0.3,1.6c-0.1,0.8-0.3,1.6-0.4,2.4c0,0.4,0,0.8-0.1,1.3C0.1,38.4,0,39.3,0,40.2c0,0.2,0,0.4,0,0.6
				c0,0.7,0,1.4,0.1,2.1c0.3,4.5,1.3,8.9,3.1,13.1c0.1,0.3,0.3,0.7,0.4,1c1.2,2.6,2.6,5,4.2,7.2l13.1,16h15.3L17,56.7
				c-1.9-2.6-3.3-5.6-4.1-8.7c-0.6-2.4-0.9-4.8-1-7.2c0-15.3,12.7-27.7,28.4-27.7c8.3,0,15.2,2.6,21.4,8c6,5.2,10.9,12.5,16.1,20.3
				c6.2,9.2,12.6,18.8,21.8,26.3c2.2,1.8,9.1,7.3,18.7,10.5h0l0.7,0.2c4.1,1.3,8.3,2,12.6,2c15.2,0,27.7-4.3,38.4-12.9
				c9.2-7.5,15.6-17,21.8-26.3c5.2-7.8,10.1-15.1,16.1-20.3c6.2-5.4,13.1-8,21.4-8c15.7,0,28.4,12.4,28.4,27.7S245,68.3,229.3,68.3
				c-13.7,0-30.5-9.8-28.4-34.6L189.9,50c2.4,18.2,19.9,30.3,39.5,30.3c22.5,0,40.7-17.8,40.7-39.8S251.8,0.6,229.4,0.6z
				 M131.5,12.5c13.4,0,24.9,9,27.8,21.8h-55.5C106.8,21.4,118.3,12.4,131.5,12.5z"/>
		</g>
	</g>
</g>
</svg>
