<?xml version="1.0" encoding="utf-8"?>
<!-- Generator: Adobe Illustrator 16.0.0, SVG Export Plug-In . SVG Version: 6.00 Build 0)  -->
<!DOCTYPE svg PUBLIC "-//W3C//DTD SVG 1.1//EN" "https://www.w3.org/Graphics/SVG/1.1/DTD/svg11.dtd">
<svg version="1.1" id="Layer_1" xmlns="https://www.w3.org/2000/svg" xmlns:xlink="https://www.w3.org/1999/xlink" x="0px" y="0px"
	 width="115px" height="58px" viewBox="0 0 115 58" enable-background="new 0 0 115 58" xml:space="preserve">
<g>
	<path fill="#FFFFFF" d="M32.95,35.858h-6.059V15.874c-0.012-4.939-3.937-8.938-8.775-8.938h-2.598
		c-4.838,0-8.764,3.996-8.775,8.938v19.984H0.685V15.874c0-8.338,6.654-15.123,14.834-15.123h2.597
		c8.179,0,14.833,6.783,14.833,15.123L32.95,35.858z"/>
	<path fill="#FFFFFF" d="M96.47,35.858c-8.594,0-16.256-5.354-17.334-13.373l4.871-7.188c-0.913,10.93,6.471,15.254,12.466,15.254
		c6.874,0,12.448-5.482,12.448-12.246S103.347,6.06,96.473,6.06c-3.681,0-6.673,1.121-9.417,3.529
		c-2.631,2.307-4.777,5.529-7.052,8.939c-2.714,4.07-5.521,8.279-9.536,11.584c-4.696,3.867-10.213,5.746-16.865,5.746
		c-7.219,0.002-13.725-4.275-16.487-10.834c-2.763-6.561-1.236-14.109,3.867-19.131c5.103-5.02,12.778-6.523,19.446-3.807
		s11.016,9.119,11.016,16.219v2.654H41.447c1.272,5.6,6.32,9.584,12.153,9.592c11.934,0,16.771-7.254,21.889-14.934
		c2.365-3.549,4.812-7.219,7.973-9.99c3.74-3.281,8.002-4.877,13.008-4.877c9.855,0,17.846,7.859,17.846,17.555
		S106.325,35.858,96.47,35.858 M41.39,15.604h24.359c-1.269-5.609-6.332-9.602-12.181-9.602S42.657,9.995,41.39,15.604"/>
	<path fill="#FFFFFF" d="M110.112,35.104v-1.883h-0.705v-0.383h1.888v0.383h-0.703v1.883H110.112z M111.673,35.104v-2.266h0.707
		l0.426,1.545l0.422-1.545h0.71v2.266h-0.44v-1.783l-0.465,1.783h-0.456l-0.464-1.783v1.783H111.673z"/>
	<path fill="#FFFFFF" d="M27.562,51.259c0,0.262-0.025,0.508-0.076,0.736h-4.796c0.059,0.609,0.294,1.1,0.706,1.473
		c0.412,0.371,0.918,0.557,1.518,0.557c0.691,0,1.312-0.279,1.861-0.838l0.562,0.66c-0.666,0.719-1.478,1.078-2.436,1.078
		c-0.916,0-1.683-0.309-2.298-0.926c-0.616-0.617-0.924-1.383-0.924-2.295c0-0.906,0.299-1.672,0.898-2.297
		c0.6-0.627,1.336-0.939,2.211-0.939c0.791,0,1.451,0.264,1.979,0.787S27.562,50.448,27.562,51.259 M24.763,49.356
		c-0.508,0-0.949,0.162-1.323,0.488c-0.375,0.326-0.612,0.754-0.712,1.287h3.847c-0.009-0.549-0.185-0.982-0.53-1.299
		C25.698,49.515,25.271,49.356,24.763,49.356"/>
	<polygon fill="#FFFFFF" points="49.194,54.786 46.884,51.563 49.021,48.608 47.909,48.608 46.347,50.853 44.798,48.608 
		43.687,48.608 45.798,51.563 43.499,54.786 44.623,54.786 46.347,52.286 48.083,54.786 	"/>
	<path fill="#FFFFFF" d="M93.162,51.259c0,0.262-0.024,0.508-0.075,0.736h-4.796c0.058,0.609,0.294,1.1,0.706,1.473
		c0.412,0.371,0.917,0.557,1.518,0.557c0.69,0,1.311-0.279,1.861-0.838l0.561,0.66c-0.666,0.719-1.478,1.078-2.436,1.078
		c-0.916,0-1.682-0.309-2.297-0.926c-0.617-0.617-0.925-1.383-0.925-2.295c0-0.906,0.3-1.672,0.899-2.297
		c0.6-0.627,1.336-0.939,2.21-0.939c0.792,0,1.451,0.264,1.979,0.787C92.897,49.778,93.162,50.448,93.162,51.259 M90.364,49.356
		c-0.508,0-0.949,0.162-1.324,0.488c-0.374,0.326-0.611,0.754-0.712,1.287h3.847c-0.008-0.549-0.186-0.982-0.531-1.299
		C91.299,49.515,90.872,49.356,90.364,49.356"/>
	<path fill="#FFFFFF" d="M5.14,49.14c-0.199-0.223-0.652-0.672-1.916-0.672c-1.12,0-1.717,0.449-1.916,0.672
		c-0.4,0.449-0.6,1.037-0.6,1.764v3.883h0.961v-3.768c0-0.49,0.136-0.889,0.406-1.193s0.639-0.457,1.105-0.457
		c0.015,0,0.027,0.004,0.042,0.006h0.001l0,0c0.016-0.002,0.028-0.006,0.043-0.006c0.467,0,0.834,0.152,1.105,0.457
		c0.271,0.305,0.406,0.703,0.406,1.193v3.768h0.961v-3.883C5.739,50.177,5.54,49.589,5.14,49.14"/>
	<path fill="#FFFFFF" d="M113.533,49.14c-0.2-0.223-0.653-0.672-1.917-0.672c-1.119,0-1.717,0.449-1.916,0.672
		c-0.399,0.449-0.6,1.037-0.6,1.764v3.883h0.961v-3.768c0-0.49,0.136-0.889,0.406-1.193c0.271-0.305,0.639-0.457,1.105-0.457
		c0.015,0,0.028,0.004,0.043,0.006l0,0h0.001c0.015-0.002,0.027-0.006,0.042-0.006c0.467,0,0.835,0.152,1.105,0.457
		c0.271,0.305,0.406,0.703,0.406,1.193v3.768h0.961v-3.883C114.132,50.177,113.933,49.589,113.533,49.14"/>
	<path fill-rule="evenodd" clip-rule="evenodd" fill="#FFFFFF" d="M65.526,56.056l0.003-0.01c0.005-0.006,0.011-0.014,0.017-0.02
		c0.173-0.211,0.346-0.422,0.52-0.633c0.006-0.006,0.013-0.014,0.02-0.02l0.006-0.002l0.018,0.014
		c0.064,0.057,0.129,0.113,0.197,0.164c0.185,0.148,0.38,0.281,0.587,0.396c0.194,0.107,0.396,0.195,0.606,0.264
		c0.115,0.037,0.232,0.066,0.352,0.088c0.062,0.012,0.127,0.021,0.189,0.029c0.065,0.008,0.131,0.012,0.195,0.016
		c0.06,0.002,0.118,0.004,0.177,0.004c0.065-0.002,0.132-0.004,0.198-0.01c0.051-0.004,0.1-0.01,0.15-0.016
		c0.204-0.027,0.402-0.078,0.591-0.162c0.219-0.098,0.409-0.234,0.571-0.41c0.117-0.131,0.209-0.275,0.281-0.436
		c0.053-0.115,0.092-0.236,0.122-0.361c0.019-0.074,0.032-0.15,0.043-0.225c0.007-0.045,0.011-0.09,0.016-0.135
		c0.013-0.115,0.015-0.23,0.015-0.346c0-0.156,0-0.312,0-0.469c0-0.012,0-0.021-0.001-0.031l-0.003-0.006l-0.006,0.002
		c-0.004,0.006-0.008,0.008-0.013,0.014c-0.198,0.246-0.436,0.445-0.71,0.602c-0.235,0.135-0.485,0.236-0.749,0.303
		c-0.087,0.021-0.175,0.041-0.264,0.055c-0.055,0.01-0.11,0.016-0.165,0.023c-0.168,0.02-0.337,0.021-0.506,0.016
		c-0.049-0.002-0.098-0.004-0.147-0.01c-0.032-0.004-0.063-0.006-0.096-0.008c-0.036-0.004-0.071-0.01-0.108-0.016
		c-0.044-0.006-0.088-0.014-0.133-0.021c-0.166-0.033-0.328-0.078-0.485-0.139c-0.288-0.111-0.549-0.268-0.785-0.467
		c-0.232-0.195-0.433-0.422-0.6-0.678c-0.158-0.242-0.276-0.502-0.357-0.779c-0.035-0.117-0.062-0.236-0.083-0.355
		c-0.012-0.066-0.021-0.135-0.029-0.201c-0.008-0.076-0.014-0.15-0.019-0.227c-0.007-0.119-0.007-0.24-0.005-0.359
		c0.002-0.057,0.006-0.115,0.011-0.172c0.003-0.033,0.006-0.068,0.009-0.104c0.004-0.039,0.01-0.08,0.015-0.121
		c0.007-0.045,0.015-0.092,0.022-0.139c0.023-0.131,0.055-0.26,0.095-0.385c0.136-0.436,0.36-0.818,0.669-1.152
		c0.139-0.15,0.289-0.285,0.455-0.404c0.266-0.191,0.557-0.33,0.872-0.416c0.091-0.025,0.183-0.045,0.275-0.061
		c0.05-0.01,0.101-0.016,0.152-0.023c0.054-0.006,0.108-0.012,0.162-0.016c0.048-0.004,0.095-0.006,0.142-0.008
		c0.031-0.002,0.063-0.002,0.096-0.004c0.077-0.004,0.154-0.004,0.23-0.002c0.054,0.002,0.107,0.004,0.16,0.004
		c0.057,0.002,0.113,0.006,0.17,0.01c0.052,0.004,0.104,0.01,0.156,0.016c0.188,0.023,0.371,0.064,0.55,0.123
		c0.303,0.1,0.579,0.248,0.829,0.443c0.237,0.184,0.441,0.4,0.617,0.645c0.06,0.082,0.117,0.168,0.168,0.258
		c0.115,0.199,0.203,0.412,0.265,0.633c0.028,0.1,0.05,0.199,0.065,0.301c0.012,0.064,0.02,0.129,0.027,0.193
		c0.012,0.117,0.017,0.232,0.017,0.35v2.76c0,0.09-0.003,0.178-0.008,0.268c-0.003,0.066-0.008,0.131-0.017,0.195
		c-0.005,0.043-0.009,0.088-0.016,0.131c-0.008,0.066-0.02,0.131-0.032,0.195c-0.022,0.111-0.048,0.219-0.082,0.328
		c-0.073,0.238-0.176,0.467-0.312,0.678c-0.134,0.207-0.294,0.391-0.481,0.553c-0.266,0.229-0.564,0.396-0.897,0.508
		c-0.131,0.043-0.265,0.078-0.399,0.104c-0.059,0.012-0.118,0.021-0.178,0.029c-0.045,0.006-0.089,0.01-0.133,0.016
		c-0.07,0.008-0.142,0.014-0.212,0.016c-0.077,0.004-0.153,0.004-0.23,0.006c-0.049,0-0.097-0.002-0.145-0.004
		c-0.059-0.002-0.117-0.006-0.176-0.01c-0.035-0.004-0.07-0.006-0.106-0.01c-0.023-0.002-0.049-0.004-0.072-0.008
		c-0.039-0.006-0.078-0.01-0.117-0.016c-0.046-0.008-0.092-0.014-0.137-0.021c-0.088-0.016-0.176-0.035-0.263-0.057
		c-0.344-0.088-0.669-0.221-0.976-0.4c-0.234-0.139-0.453-0.299-0.655-0.48c-0.06-0.053-0.116-0.109-0.173-0.164
		C65.548,56.079,65.534,56.063,65.526,56.056 M70.412,51.673c-0.001-0.08,0-0.17-0.007-0.258c-0.006-0.059-0.012-0.117-0.021-0.176
		c-0.011-0.09-0.029-0.178-0.053-0.264c-0.054-0.207-0.136-0.4-0.251-0.58c-0.051-0.082-0.105-0.158-0.169-0.229
		c-0.11-0.125-0.233-0.236-0.371-0.332c-0.246-0.174-0.52-0.285-0.813-0.346c-0.053-0.012-0.107-0.02-0.161-0.027
		c-0.048-0.008-0.095-0.014-0.144-0.018c-0.05-0.004-0.1-0.006-0.15-0.01c-0.057-0.002-0.115-0.002-0.173-0.002
		c-0.075,0-0.149,0.008-0.224,0.02c-0.069,0.012-0.139,0.025-0.207,0.043c-0.178,0.047-0.348,0.115-0.508,0.209
		c-0.242,0.143-0.446,0.326-0.616,0.549c-0.219,0.289-0.347,0.615-0.401,0.971c-0.01,0.062-0.017,0.125-0.021,0.188
		c-0.006,0.064-0.009,0.129-0.01,0.193c-0.002,0.092,0.002,0.186,0.01,0.279c0.005,0.057,0.012,0.115,0.02,0.17
		c0.013,0.088,0.031,0.174,0.053,0.258c0.051,0.189,0.125,0.369,0.226,0.537c0.091,0.15,0.198,0.285,0.323,0.408
		c0.137,0.133,0.289,0.248,0.457,0.34c0.148,0.082,0.303,0.143,0.467,0.184c0.076,0.02,0.151,0.037,0.229,0.047
		c0.035,0.006,0.07,0.01,0.105,0.014c0.038,0.004,0.076,0.008,0.115,0.01c0.092,0.006,0.186,0.008,0.279,0.002
		c0.072-0.004,0.145-0.01,0.217-0.018c0.062-0.01,0.124-0.02,0.186-0.033c0.156-0.033,0.307-0.084,0.451-0.152
		c0.184-0.086,0.35-0.197,0.503-0.33c0.087-0.074,0.167-0.156,0.237-0.246c0.109-0.143,0.195-0.297,0.26-0.463
		c0.041-0.105,0.072-0.215,0.098-0.326c0.014-0.064,0.027-0.131,0.035-0.197c0.008-0.049,0.013-0.098,0.017-0.146
		c0.005-0.057,0.009-0.113,0.011-0.17C70.411,51.739,70.411,51.71,70.412,51.673"/>
</g>
</svg>
