<?xml version="1.0" encoding="utf-8"?>
<!-- Generator: Adobe Illustrator 16.0.0, SVG Export Plug-In . SVG Version: 6.00 Build 0)  -->
<!DOCTYPE svg PUBLIC "-//W3C//DTD SVG 1.1//EN" "http://www.w3.org/Graphics/SVG/1.1/DTD/svg11.dtd">
<svg version="1.1" id="Layer_1" xmlns="http://www.w3.org/2000/svg" xmlns:xlink="http://www.w3.org/1999/xlink" x="0px" y="0px"
	 width="115px" height="59px" viewBox="0 0 115 59" enable-background="new 0 0 115 59" xml:space="preserve">
<g>
	<g>
		<defs>
			<rect id="SVGID_1_" x="0.685" y="0.534" width="113.629" height="57.932"/>
		</defs>
		<clipPath id="SVGID_2_">
			<use xlink:href="#SVGID_1_"  overflow="visible"/>
		</clipPath>
		<path clip-path="url(#SVGID_2_)" fill="#499BD4" d="M32.951,35.643h-6.059V15.658c-0.012-4.94-3.937-8.939-8.775-8.938h-2.598
			c-4.838,0-8.764,3.997-8.775,8.937v19.987H0.685V15.658c0-8.338,6.654-15.124,14.834-15.124h2.597
			c8.179,0,14.833,6.784,14.833,15.124L32.951,35.643z"/>
		<path clip-path="url(#SVGID_2_)" fill="#499BD4" d="M96.471,35.643c-8.594,0-16.256-5.354-17.334-13.375l4.871-7.187
			c-0.914,10.93,6.471,15.253,12.465,15.253c6.875,0,12.449-5.482,12.449-12.246c0-6.763-5.574-12.246-12.449-12.246
			c-3.68,0-6.672,1.122-9.416,3.529c-2.631,2.307-4.777,5.529-7.053,8.94c-2.713,4.071-5.52,8.28-9.535,11.584
			c-4.697,3.866-10.213,5.747-16.866,5.747c-7.219,0-13.725-4.275-16.487-10.835c-2.763-6.56-1.236-14.11,3.867-19.13
			c5.103-5.021,12.778-6.523,19.447-3.806c6.668,2.717,11.016,9.118,11.016,16.218v2.655H41.448c1.272,5.6,6.32,9.584,12.153,9.591
			c11.934,0,16.772-7.254,21.889-14.933c2.365-3.548,4.812-7.218,7.973-9.99c3.74-3.282,8.002-4.876,13.008-4.876
			c9.855,0,17.846,7.859,17.846,17.554C114.316,27.784,106.326,35.643,96.471,35.643 M41.39,15.388h24.36
			c-1.27-5.61-6.332-9.602-12.181-9.602C47.72,5.786,42.658,9.777,41.39,15.388"/>
	</g>
	<path fill="#499BD4" d="M110.113,34.887v-1.881h-0.705v-0.384h1.887v0.384h-0.703v1.881H110.113z M111.674,34.887v-2.265h0.707
		l0.426,1.545l0.422-1.545h0.709v2.265h-0.439v-1.782l-0.465,1.782h-0.457l-0.463-1.782v1.782H111.674z"/>
	<path fill="#499BD4" d="M27.562,51.042c0,0.263-0.025,0.508-0.076,0.735H22.69c0.059,0.609,0.294,1.1,0.706,1.473
		c0.412,0.371,0.918,0.558,1.518,0.558c0.691,0,1.312-0.278,1.861-0.837l0.562,0.659c-0.666,0.72-1.478,1.079-2.436,1.079
		c-0.916,0-1.683-0.309-2.298-0.927c-0.616-0.618-0.924-1.383-0.924-2.296c0-0.905,0.299-1.671,0.898-2.297
		c0.6-0.625,1.336-0.938,2.211-0.938c0.791,0,1.451,0.262,1.979,0.785C27.296,49.562,27.562,50.23,27.562,51.042 M24.763,49.139
		c-0.508,0-0.949,0.164-1.323,0.488c-0.375,0.326-0.612,0.756-0.712,1.289h3.847c-0.009-0.551-0.185-0.984-0.53-1.301
		S25.271,49.139,24.763,49.139"/>
	<polygon fill="#499BD4" points="49.195,54.568 46.884,51.348 49.021,48.391 47.91,48.391 46.347,50.637 44.798,48.391 
		43.687,48.391 45.798,51.348 43.5,54.568 44.624,54.568 46.347,52.069 48.083,54.568 	"/>
	<path fill="#499BD4" d="M93.162,51.042c0,0.263-0.023,0.508-0.074,0.735h-4.797c0.059,0.609,0.295,1.1,0.707,1.473
		c0.412,0.371,0.916,0.558,1.518,0.558c0.689,0,1.311-0.278,1.861-0.837l0.561,0.659c-0.666,0.72-1.479,1.079-2.436,1.079
		c-0.916,0-1.682-0.309-2.297-0.927c-0.617-0.618-0.926-1.383-0.926-2.296c0-0.905,0.301-1.671,0.9-2.297
		c0.6-0.625,1.336-0.938,2.209-0.938c0.793,0,1.451,0.262,1.98,0.785C92.898,49.562,93.162,50.23,93.162,51.042 M90.365,49.139
		c-0.508,0-0.949,0.164-1.324,0.488c-0.375,0.326-0.611,0.756-0.713,1.289h3.848c-0.008-0.551-0.186-0.984-0.531-1.301
		S90.873,49.139,90.365,49.139"/>
	<path fill="#499BD4" d="M5.14,48.924c-0.199-0.225-0.652-0.672-1.916-0.672c-1.12,0-1.717,0.447-1.916,0.672
		c-0.4,0.447-0.6,1.036-0.6,1.764v3.881h0.961v-3.768c0-0.49,0.136-0.888,0.406-1.192c0.271-0.304,0.639-0.456,1.105-0.456
		c0.015,0,0.027,0.002,0.042,0.004h0.001l0,0c0.016-0.002,0.028-0.004,0.043-0.004c0.467,0,0.834,0.152,1.105,0.456
		c0.271,0.305,0.406,0.702,0.406,1.192v3.768H5.74v-3.881C5.74,49.96,5.541,49.371,5.14,48.924"/>
	<path fill="#499BD4" d="M113.533,48.924c-0.199-0.225-0.652-0.672-1.916-0.672c-1.119,0-1.717,0.447-1.916,0.672
		c-0.4,0.447-0.6,1.036-0.6,1.764v3.881h0.961v-3.768c0-0.49,0.135-0.888,0.406-1.192c0.271-0.304,0.639-0.456,1.105-0.456
		c0.014,0,0.027,0.002,0.043,0.004l0,0l0,0c0.016-0.002,0.027-0.004,0.043-0.004c0.467,0,0.834,0.152,1.105,0.456
		c0.271,0.305,0.406,0.702,0.406,1.192v3.768h0.961v-3.881C114.133,49.96,113.934,49.371,113.533,48.924"/>
	<path fill-rule="evenodd" clip-rule="evenodd" fill="#499BD4" d="M65.527,55.839c0.002-0.004,0.002-0.007,0.002-0.01
		c0.006-0.007,0.012-0.014,0.018-0.021c0.172-0.21,0.346-0.42,0.52-0.631c0.006-0.008,0.012-0.015,0.02-0.021
		c0-0.002,0.004-0.002,0.006-0.001c0.006,0.004,0.012,0.009,0.018,0.015c0.064,0.056,0.129,0.111,0.197,0.164
		c0.184,0.146,0.379,0.279,0.586,0.395c0.195,0.107,0.396,0.197,0.607,0.264c0.115,0.037,0.232,0.066,0.352,0.089
		c0.062,0.012,0.127,0.021,0.189,0.029c0.064,0.007,0.131,0.013,0.195,0.016c0.059,0.003,0.117,0.005,0.176,0.003
		c0.066-0.002,0.133-0.004,0.199-0.01c0.051-0.004,0.1-0.008,0.15-0.016c0.203-0.027,0.402-0.077,0.59-0.161
		c0.219-0.098,0.41-0.233,0.572-0.411c0.117-0.13,0.209-0.275,0.281-0.434c0.053-0.117,0.092-0.238,0.121-0.361
		c0.02-0.075,0.033-0.15,0.043-0.227c0.008-0.045,0.012-0.09,0.016-0.134c0.014-0.115,0.016-0.23,0.016-0.347
		c0-0.156,0-0.312,0-0.468c0-0.011,0-0.021-0.002-0.032c0-0.002,0-0.004,0-0.004c-0.004-0.002-0.006-0.002-0.008,0
		c-0.004,0.006-0.008,0.01-0.014,0.015c-0.197,0.247-0.436,0.445-0.709,0.603c-0.236,0.135-0.486,0.234-0.75,0.303
		c-0.086,0.021-0.174,0.04-0.264,0.055c-0.055,0.009-0.109,0.016-0.164,0.021c-0.168,0.02-0.338,0.021-0.506,0.017
		c-0.049-0.002-0.098-0.005-0.148-0.01c-0.031-0.003-0.062-0.005-0.096-0.009c-0.035-0.004-0.07-0.008-0.107-0.014
		c-0.045-0.008-0.088-0.016-0.133-0.023c-0.166-0.031-0.328-0.078-0.486-0.139c-0.287-0.111-0.549-0.267-0.785-0.465
		c-0.232-0.197-0.432-0.422-0.6-0.678c-0.158-0.242-0.275-0.503-0.357-0.781c-0.035-0.117-0.062-0.236-0.082-0.355
		c-0.012-0.066-0.021-0.133-0.029-0.2c-0.008-0.075-0.014-0.151-0.02-0.227c-0.006-0.12-0.006-0.239-0.004-0.359
		c0.002-0.058,0.006-0.116,0.01-0.173c0.004-0.033,0.006-0.068,0.01-0.102c0.004-0.041,0.01-0.081,0.014-0.121
		c0.008-0.047,0.016-0.094,0.023-0.14c0.023-0.131,0.055-0.259,0.094-0.386c0.137-0.436,0.361-0.818,0.67-1.152
		c0.139-0.149,0.289-0.285,0.455-0.404c0.266-0.189,0.557-0.328,0.871-0.415c0.092-0.025,0.184-0.046,0.275-0.062
		c0.051-0.009,0.102-0.016,0.152-0.022c0.055-0.007,0.109-0.011,0.162-0.017c0.049-0.004,0.096-0.005,0.143-0.008
		c0.031-0.001,0.062-0.002,0.096-0.004c0.076-0.003,0.154-0.002,0.23,0c0.053,0,0.107,0.003,0.16,0.004
		c0.057,0,0.113,0.004,0.17,0.008c0.051,0.004,0.104,0.01,0.156,0.017c0.188,0.023,0.371,0.063,0.549,0.122
		c0.303,0.1,0.58,0.248,0.83,0.443c0.236,0.186,0.441,0.4,0.617,0.645c0.059,0.084,0.117,0.169,0.168,0.258
		c0.115,0.2,0.203,0.412,0.264,0.635c0.029,0.099,0.051,0.199,0.066,0.301c0.012,0.063,0.02,0.128,0.027,0.193
		c0.012,0.115,0.016,0.232,0.016,0.349v2.759c0,0.09-0.002,0.18-0.008,0.269c-0.002,0.065-0.008,0.13-0.016,0.195
		c-0.006,0.044-0.01,0.087-0.016,0.131c-0.008,0.065-0.02,0.131-0.033,0.196c-0.021,0.109-0.047,0.219-0.082,0.326
		c-0.072,0.24-0.176,0.467-0.312,0.678c-0.133,0.208-0.293,0.392-0.48,0.553c-0.266,0.23-0.564,0.397-0.898,0.508
		c-0.131,0.044-0.264,0.078-0.398,0.104c-0.059,0.012-0.119,0.021-0.178,0.03c-0.045,0.007-0.09,0.01-0.133,0.016
		c-0.07,0.009-0.143,0.013-0.213,0.017c-0.076,0.002-0.152,0.002-0.23,0.004c-0.049,0-0.096-0.002-0.145-0.004
		c-0.059-0.001-0.117-0.004-0.176-0.01c-0.035-0.003-0.07-0.006-0.105-0.008c-0.023-0.002-0.049-0.006-0.072-0.009
		c-0.039-0.005-0.078-0.011-0.117-0.017c-0.047-0.006-0.092-0.014-0.137-0.021c-0.088-0.016-0.176-0.035-0.264-0.057
		c-0.344-0.088-0.668-0.221-0.975-0.399c-0.234-0.139-0.453-0.3-0.656-0.481c-0.059-0.053-0.115-0.107-0.172-0.164
		C65.541,55.854,65.535,55.847,65.527,55.839 M70.412,51.455c0-0.08,0-0.17-0.006-0.258c-0.006-0.059-0.012-0.117-0.021-0.175
		c-0.01-0.09-0.029-0.178-0.053-0.265c-0.053-0.206-0.135-0.4-0.25-0.58c-0.051-0.08-0.105-0.158-0.17-0.229
		c-0.109-0.125-0.232-0.234-0.371-0.331c-0.246-0.173-0.52-0.284-0.812-0.347c-0.053-0.011-0.107-0.02-0.162-0.027
		c-0.047-0.007-0.094-0.012-0.143-0.017c-0.051-0.004-0.1-0.007-0.15-0.009c-0.057-0.004-0.115-0.004-0.174-0.004
		c-0.074,0.001-0.148,0.008-0.223,0.021c-0.07,0.011-0.139,0.025-0.207,0.044c-0.178,0.046-0.348,0.115-0.508,0.209
		c-0.242,0.142-0.447,0.325-0.617,0.549c-0.219,0.287-0.346,0.613-0.4,0.97c-0.01,0.062-0.018,0.125-0.021,0.188
		c-0.006,0.064-0.01,0.128-0.01,0.192c-0.002,0.094,0.002,0.186,0.01,0.279c0.004,0.057,0.012,0.115,0.02,0.172
		c0.012,0.087,0.031,0.172,0.053,0.257c0.051,0.188,0.125,0.368,0.225,0.536c0.092,0.15,0.199,0.286,0.324,0.408
		c0.137,0.135,0.289,0.248,0.457,0.341c0.148,0.081,0.303,0.142,0.467,0.185c0.076,0.02,0.15,0.035,0.229,0.047
		c0.035,0.004,0.07,0.01,0.105,0.012c0.037,0.004,0.076,0.009,0.115,0.01c0.092,0.006,0.186,0.008,0.279,0.003
		c0.072-0.003,0.145-0.009,0.217-0.019c0.062-0.008,0.123-0.02,0.186-0.032c0.156-0.034,0.307-0.085,0.451-0.153
		c0.184-0.086,0.35-0.195,0.502-0.328c0.088-0.076,0.168-0.158,0.238-0.248c0.109-0.141,0.195-0.296,0.26-0.463
		c0.041-0.105,0.072-0.213,0.098-0.324c0.014-0.066,0.027-0.133,0.035-0.199c0.008-0.049,0.012-0.098,0.016-0.146
		c0.006-0.057,0.01-0.113,0.012-0.17C70.412,51.523,70.412,51.493,70.412,51.455"/>
</g>
</svg>
