<?xml version="1.0" encoding="utf-8"?>
<!-- Generator: Adobe Illustrator 16.0.0, SVG Export Plug-In . SVG Version: 6.00 Build 0)  -->
<!DOCTYPE svg PUBLIC "-//W3C//DTD SVG 1.1//EN" "http://www.w3.org/Graphics/SVG/1.1/DTD/svg11.dtd">
<svg version="1.1" id="Layer_1" xmlns="http://www.w3.org/2000/svg" xmlns:xlink="http://www.w3.org/1999/xlink" x="0px" y="0px"
	 width="200px" height="38px" viewBox="0 0 200 38" enable-background="new 0 0 200 38" xml:space="preserve">
<g>
	<path fill="#499CD5" d="M7.084,27.824c-3.223,0-5.303-1.277-6.24-3.832c-0.105-0.293-0.158-0.592-0.158-0.896
		c0-0.316,0.111-0.533,0.334-0.65c0.07-0.035,0.141-0.053,0.211-0.053c0.246,0,0.586,0.246,1.02,0.738
		c1.207,1.406,2.578,2.109,4.113,2.109c1.852-0.012,3.322-0.48,4.412-1.406c0.949-0.809,1.424-1.863,1.424-3.164
		c0-0.996-0.357-1.881-1.072-2.654c-0.984-1.066-2.098-2.027-3.34-2.883c-2.52-1.711-4.09-3.381-4.711-5.01
		C2.83,9.479,2.707,8.805,2.707,8.102c0-1.254,0.287-2.432,0.861-3.533c0.434-0.832,1.008-1.553,1.723-2.162
		c0.668-0.574,1.412-1.014,2.232-1.318c0.715-0.27,1.441-0.404,2.18-0.404c2.086,0,3.797,0.727,5.133,2.18
		c0.996,1.078,1.494,2.361,1.494,3.85c0,0.891-0.193,1.336-0.58,1.336c-0.375,0-0.756-0.451-1.143-1.354
		c-0.352-0.832-0.855-1.523-1.512-2.074c-0.938-0.773-2.021-1.16-3.252-1.16c-0.539,0-1.034,0.094-1.485,0.281
		s-0.861,0.454-1.23,0.8S6.463,5.289,6.24,5.746C5.936,6.379,5.783,7.023,5.783,7.68c0,1.43,1.383,3.088,4.148,4.975
		c0.645,0.445,1.277,0.92,1.898,1.424c2.285,1.887,3.428,3.949,3.428,6.188c0,1.277-0.287,2.449-0.861,3.516
		c-0.469,0.879-1.096,1.623-1.881,2.232C10.969,27.221,9.158,27.824,7.084,27.824z"/>
	<path fill="#499CD5" d="M30.195,27.789c-1.16,0-1.74-1.893-1.74-5.678c0-0.727,0.018-1.447,0.053-2.162
		c-0.68,1.664-1.453,3.105-2.32,4.324c-1.559,2.18-3.287,3.27-5.186,3.27c-1.02,0-1.799-0.258-2.338-0.773
		c-0.855-0.809-1.283-2.033-1.283-3.674c0-1.312,0.246-2.678,0.738-4.096c0.738-2.086,1.928-4.084,3.568-5.994
		c1.945-2.262,4.055-3.416,6.328-3.463c0.258,0,0.612,0.05,1.063,0.149s0.8,0.226,1.046,0.378c0.352-0.703,0.791-1.055,1.318-1.055
		c0.551,0,0.861,0.293,0.932,0.879c0.035,0.305,0.053,0.609,0.053,0.914c0,0.703-0.234,3.352-0.703,7.945
		c-0.176,1.676-0.275,3.838-0.299,6.486c-0.012,0.738-0.059,1.266-0.141,1.582C31.121,27.467,30.758,27.789,30.195,27.789z
		 M21.336,24.396c2.121,0,4.512-3.094,7.172-9.281c0.34-0.809,0.721-2.045,1.143-3.709c-2.168,0.07-3.961,0.967-5.379,2.689
		c-1.84,2.238-2.994,4.559-3.463,6.961c-0.141,0.691-0.211,1.342-0.211,1.951C20.598,23.934,20.844,24.396,21.336,24.396z"/>
	<path fill="#499CD5" d="M40.862,37.316c-1.922,0-3.41-0.762-4.465-2.285c-0.258-0.375-0.457-0.744-0.598-1.107
		s-0.211-0.633-0.211-0.809c0-0.234,0.088-0.416,0.264-0.545c0.129-0.105,0.275-0.158,0.439-0.158c0.281,0,0.691,0.258,1.23,0.773
		c0.398,0.375,0.814,0.68,1.248,0.914c0.539,0.281,1.201,0.422,1.986,0.422c0.691,0,1.295-0.234,1.811-0.703
		c2.215-2.016,3.738-7.371,4.57-16.066l-0.492,1.143c-0.891,2.039-1.969,3.779-3.234,5.221c-1.336,1.512-2.807,2.268-4.412,2.268
		c-0.797,0-1.471-0.211-2.021-0.633c-1.078-0.832-1.617-2.285-1.617-4.359c0-1.746,0.246-3.721,0.738-5.924
		c0.797-3.504,1.641-5.256,2.531-5.256c0.281,0,0.475,0.182,0.58,0.545c0.059,0.211,0.088,0.58,0.088,1.107
		c0,0.879-0.123,2.021-0.369,3.428c-0.363,2.109-0.545,3.861-0.545,5.256c0,1.043,0.091,1.755,0.272,2.136s0.431,0.571,0.747,0.571
		c1.219,0,2.59-1.301,4.113-3.902c0.902-1.547,2.051-3.914,3.445-7.102c0.328-0.762,0.609-1.494,0.844-2.197
		s0.633-1.055,1.195-1.055c0.668,0,1.049,0.703,1.143,2.109c0.047,0.633,0.07,1.535,0.07,2.707c0,3.504-0.258,7.014-0.773,10.529
		c-0.855,5.777-2.555,9.68-5.098,11.707C43.288,36.895,42.128,37.316,40.862,37.316z"/>
	<path fill="#499CD5" d="M62.898,28.844c-0.633,0-0.949-0.85-0.949-2.549c0.105-6,0.732-12.193,1.881-18.58
		c0.293-1.664,0.527-2.854,0.703-3.568c0.469-1.992,1.037-2.988,1.705-2.988c0.504,0,0.756,0.762,0.756,2.285
		c0,0.926-0.064,2.241-0.193,3.946s-0.322,3.483-0.58,5.335c1.582-0.258,3.58-0.387,5.994-0.387c0.914,0,1.74,0.018,2.479,0.053
		c0.445-3.281,0.932-6.047,1.459-8.297c0.457-1.957,1.025-2.936,1.705-2.936c0.504,0,0.756,0.744,0.756,2.232
		c0,0.516-0.082,1.758-0.246,3.727c-0.633,7.301-1.289,12.967-1.969,16.998c-0.07,0.434-0.164,0.908-0.281,1.424
		c-0.293,1.336-0.768,2.004-1.424,2.004c-0.668,0-1.002-0.908-1.002-2.725c0-0.562,0.053-1.764,0.158-3.604
		c0.117-2.133,0.293-4.26,0.527-6.381c-1.137,0.105-2.566,0.199-4.289,0.281c-1.336,0.07-2.508,0.105-3.516,0.105h-0.598
		c-0.41,3.809-0.855,7.143-1.336,10.002c-0.105,0.656-0.205,1.189-0.299,1.6C64.023,28.17,63.543,28.844,62.898,28.844z"/>
	<path fill="#499CD5" d="M85.816,27.965c-2.039,0-3.533-0.92-4.482-2.76c-0.691-1.324-1.037-2.842-1.037-4.553
		c0-1.863,0.422-3.814,1.266-5.854c0.668-1.617,1.629-2.982,2.883-4.096s2.807-1.67,4.658-1.67c1.16,0,2.092,0.34,2.795,1.02
		c0.656,0.621,0.984,1.465,0.984,2.531c0,1.254-0.457,2.426-1.371,3.516c-0.773,0.926-1.699,1.693-2.777,2.303
		c-1.605,0.902-3.188,1.354-4.746,1.354c-0.211,0-0.398-0.012-0.562-0.035c-0.035,0.316-0.053,0.621-0.053,0.914
		c0,1.008,0.146,1.91,0.439,2.707c0.48,1.289,1.307,1.934,2.479,1.934c0.691,0,1.307-0.064,1.846-0.193s1.107-0.369,1.705-0.721
		c1.043-0.621,1.74-0.932,2.092-0.932c0.141,0,0.252,0.056,0.334,0.167s0.123,0.226,0.123,0.343c0,0.316-0.205,0.709-0.615,1.178
		C90.088,27.016,88.102,27.965,85.816,27.965z M83.742,17.98c0.785-0.012,1.893-0.475,3.322-1.389
		c1.992-1.266,2.988-2.514,2.988-3.744c0-0.75-0.422-1.125-1.266-1.125c-0.855,0-1.646,0.352-2.373,1.055
		C85.207,13.938,84.316,15.672,83.742,17.98z"/>
	<path fill="#499CD5" d="M97.396,27.807c-0.598,0-1.084-0.639-1.459-1.916c-0.328-1.172-0.492-2.396-0.492-3.674
		c0-1.547,0.076-3.029,0.229-4.447c0.059-0.562,0.111-1.143,0.158-1.74c0.293-4.359,0.809-8.361,1.547-12.006
		c0.082-0.457,0.188-0.926,0.316-1.406c0.316-1.148,0.809-1.723,1.477-1.723c0.633,0.012,0.949,0.609,0.949,1.793
		c0,0.914-0.199,3.404-0.598,7.471c-0.176,1.781-0.41,4.324-0.703,7.629c-0.176,1.98-0.264,3.826-0.264,5.537
		c0,0.914,0.018,1.629,0.053,2.145c0.023,0.27,0.035,0.51,0.035,0.721c0,0.504-0.094,0.855-0.281,1.055
		C98.035,27.619,97.713,27.807,97.396,27.807z"/>
	<path fill="#499CD5" d="M105.515,27.807c-0.598,0-1.084-0.639-1.459-1.916c-0.328-1.172-0.492-2.396-0.492-3.674
		c0-1.547,0.076-3.029,0.229-4.447c0.059-0.562,0.111-1.143,0.158-1.74c0.293-4.359,0.809-8.361,1.547-12.006
		c0.082-0.457,0.188-0.926,0.316-1.406c0.316-1.148,0.809-1.723,1.477-1.723c0.633,0.012,0.949,0.609,0.949,1.793
		c0,0.914-0.199,3.404-0.598,7.471c-0.176,1.781-0.41,4.324-0.703,7.629c-0.176,1.98-0.264,3.826-0.264,5.537
		c0,0.914,0.018,1.629,0.053,2.145c0.023,0.27,0.035,0.51,0.035,0.721c0,0.504-0.094,0.855-0.281,1.055
		C106.153,27.619,105.831,27.807,105.515,27.807z"/>
	<path fill="#499CD5" d="M115.952,27.508c-1.277,0-2.332-0.287-3.164-0.861c-1.289-0.879-2.104-2.074-2.443-3.586
		c-0.176-0.797-0.264-1.6-0.264-2.408c0-3.047,0.973-5.719,2.918-8.016c0.844-0.996,1.805-1.711,2.883-2.145
		c0.82-0.34,1.67-0.51,2.549-0.51c0.996,0,1.86,0.27,2.593,0.809s1.099,1.295,1.099,2.268c0.938,0.293,1.406,1.846,1.406,4.658
		c0,0.703-0.064,1.412-0.193,2.127c-0.41,2.332-1.395,4.26-2.953,5.783c-0.598,0.586-1.28,1.046-2.048,1.38
		S116.772,27.508,115.952,27.508z M116.146,24.396c0.914,0,1.676-0.293,2.285-0.879c0.809-0.762,1.412-1.658,1.811-2.689
		c0.609-1.57,0.914-3.023,0.914-4.359c0-1.184-0.188-2.156-0.562-2.918s-0.99-1.143-1.846-1.143c-0.645,0-1.283,0.17-1.916,0.51
		s-1.189,0.826-1.67,1.459c-1.289,1.676-1.934,3.562-1.934,5.66c0,1.875,0.492,3.182,1.477,3.92
		C115.079,24.25,115.56,24.396,116.146,24.396z"/>
	<path fill="#499CD5" d="M125.916,27.543c-0.504,0-0.896-0.097-1.178-0.29s-0.422-0.589-0.422-1.187
		c0-1.922,0.604-2.883,1.811-2.883c0.691,0,1.119,0.234,1.283,0.703c0.105,0.316,0.158,0.703,0.158,1.16
		c0,0.809-0.141,1.465-0.422,1.969C126.936,27.367,126.525,27.543,125.916,27.543z"/>
	<path fill="#499CD5" d="M130.025,27.543c-0.504,0-0.896-0.097-1.178-0.29s-0.422-0.589-0.422-1.187
		c0-1.922,0.604-2.883,1.811-2.883c0.691,0,1.119,0.234,1.283,0.703c0.105,0.316,0.158,0.703,0.158,1.16
		c0,0.809-0.141,1.465-0.422,1.969C131.045,27.367,130.635,27.543,130.025,27.543z"/>
	<path fill="#499CD5" d="M134.135,27.543c-0.504,0-0.896-0.097-1.178-0.29s-0.422-0.589-0.422-1.187
		c0-1.922,0.604-2.883,1.811-2.883c0.691,0,1.119,0.234,1.283,0.703c0.105,0.316,0.158,0.703,0.158,1.16
		c0,0.809-0.141,1.465-0.422,1.969C135.154,27.367,134.744,27.543,134.135,27.543z"/>
	<path fill="#499CD5" d="M147.997,27.719c-0.539,0-0.861-0.275-0.967-0.826c-0.094-0.445-0.141-0.943-0.141-1.494
		c0-3.305,0.252-7.154,0.756-11.549c0.082-0.715,0.205-1.336,0.369-1.863c0.199-0.609,0.58-0.914,1.143-0.914
		c0.75,0,1.184,0.779,1.301,2.338c0.047,0.586,0.07,1.225,0.07,1.916c0,0.68-0.023,1.406-0.07,2.18
		c0.727-1.512,1.529-2.883,2.408-4.113c1.652-2.309,3.24-3.463,4.764-3.463c0.926,0,1.688,0.258,2.285,0.773
		c1.184,1.02,1.775,2.918,1.775,5.695c0,2.156-0.346,4.74-1.037,7.752c-0.516,2.238-1.131,3.357-1.846,3.357
		c-0.387,0-0.615-0.322-0.686-0.967c-0.035-0.305-0.053-0.633-0.053-0.984c0-0.82,0.082-1.857,0.246-3.111
		c0.246-1.793,0.369-3.539,0.369-5.238c0-1.359-0.158-2.461-0.475-3.305c-0.176-0.492-0.445-0.738-0.809-0.738
		c-0.504,0-1.107,0.387-1.811,1.16c-1.102,1.207-2.045,2.514-2.83,3.92c-1.148,2.074-1.986,3.902-2.514,5.484
		c-0.469,1.43-0.85,2.496-1.143,3.199C148.882,27.455,148.513,27.719,147.997,27.719z"/>
	<path fill="#499CD5" d="M169.861,27.965c-2.039,0-3.533-0.92-4.482-2.76c-0.691-1.324-1.037-2.842-1.037-4.553
		c0-1.863,0.422-3.814,1.266-5.854c0.668-1.617,1.629-2.982,2.883-4.096s2.807-1.67,4.658-1.67c1.16,0,2.092,0.34,2.795,1.02
		c0.656,0.621,0.984,1.465,0.984,2.531c0,1.254-0.457,2.426-1.371,3.516c-0.773,0.926-1.699,1.693-2.777,2.303
		c-1.605,0.902-3.188,1.354-4.746,1.354c-0.211,0-0.398-0.012-0.562-0.035c-0.035,0.316-0.053,0.621-0.053,0.914
		c0,1.008,0.146,1.91,0.439,2.707c0.48,1.289,1.307,1.934,2.479,1.934c0.691,0,1.307-0.064,1.846-0.193s1.107-0.369,1.705-0.721
		c1.043-0.621,1.74-0.932,2.092-0.932c0.141,0,0.252,0.056,0.334,0.167s0.123,0.226,0.123,0.343c0,0.316-0.205,0.709-0.615,1.178
		C174.133,27.016,172.146,27.965,169.861,27.965z M167.787,17.98c0.785-0.012,1.893-0.475,3.322-1.389
		c1.992-1.266,2.988-2.514,2.988-3.744c0-0.75-0.422-1.125-1.266-1.125c-0.855,0-1.646,0.352-2.373,1.055
		C169.252,13.938,168.361,15.672,167.787,17.98z"/>
	<path fill="#499CD5" d="M184.043,27.508c-1.277,0-2.332-0.287-3.164-0.861c-1.289-0.879-2.104-2.074-2.443-3.586
		c-0.176-0.797-0.264-1.6-0.264-2.408c0-3.047,0.973-5.719,2.918-8.016c0.844-0.996,1.805-1.711,2.883-2.145
		c0.82-0.34,1.67-0.51,2.549-0.51c0.996,0,1.86,0.27,2.593,0.809s1.099,1.295,1.099,2.268c0.938,0.293,1.406,1.846,1.406,4.658
		c0,0.703-0.064,1.412-0.193,2.127c-0.41,2.332-1.395,4.26-2.953,5.783c-0.598,0.586-1.28,1.046-2.048,1.38
		S184.863,27.508,184.043,27.508z M184.236,24.396c0.914,0,1.676-0.293,2.285-0.879c0.809-0.762,1.412-1.658,1.811-2.689
		c0.609-1.57,0.914-3.023,0.914-4.359c0-1.184-0.188-2.156-0.562-2.918s-0.99-1.143-1.846-1.143c-0.645,0-1.283,0.17-1.916,0.51
		s-1.189,0.826-1.67,1.459c-1.289,1.676-1.934,3.562-1.934,5.66c0,1.875,0.492,3.182,1.477,3.92
		C183.17,24.25,183.65,24.396,184.236,24.396z"/>
	<path fill="#499CD5" d="M195.975,27.543c-0.504,0-0.896-0.097-1.178-0.29s-0.422-0.589-0.422-1.187
		c0-1.922,0.604-2.883,1.811-2.883c0.691,0,1.119,0.234,1.283,0.703c0.105,0.316,0.158,0.703,0.158,1.16
		c0,0.809-0.141,1.465-0.422,1.969C196.994,27.367,196.584,27.543,195.975,27.543z M196.256,21.971c-0.656,0-0.984-0.727-0.984-2.18
		c0-0.809,0.006-1.4,0.018-1.775c0.246-5.297,0.668-10.178,1.266-14.643c0.234-1.758,0.756-2.637,1.564-2.637
		c0.527,0,0.85,0.275,0.967,0.826c0.152,0.691,0.229,1.799,0.229,3.322c0,1.852-0.111,3.984-0.334,6.398
		C198.324,18.408,197.416,21.971,196.256,21.971z"/>
</g>
</svg>
