<?xml version="1.0" encoding="utf-8"?>
<!-- Generator: Adobe Illustrator 16.0.0, SVG Export Plug-In . SVG Version: 6.00 Build 0)  -->
<!DOCTYPE svg PUBLIC "-//W3C//DTD SVG 1.1//EN" "https://www.w3.org/Graphics/SVG/1.1/DTD/svg11.dtd">
<svg version="1.1" id="Layer_1" xmlns="https://www.w3.org/2000/svg" xmlns:xlink="https://www.w3.org/1999/xlink" x="0px" y="0px"
	 width="89px" height="89px" viewBox="0 0 89 89" enable-background="new 0 0 89 89" xml:space="preserve">
<g>
	<g>
		<g>
			<g>
				<circle fill="#499CD5" cx="44.5" cy="44.5" r="43.993"/>
			</g>
		</g>
	</g>
	<g>
		<g>
			<g>
				<path fill="#FFFFFF" d="M37.896,61.221c-0.632,0-1.549-0.127-2.342-0.721c-1.206-0.904-6.249-6.633-9.192-10.182l-0.11-0.135
					l-0.048-0.164c-0.139-0.488-0.789-2.986,0.127-4.242c0.049-0.07,5.377-7.472,12.289-13.707c3.75-3.253,9.714-7.052,13.589-8.657
					c3.477-1.442,10.371-2.198,13.089-2.198c0.473,0,0.835,0.021,1.107,0.062c0.286,0.044,0.531,0.071,0.742,0.097
					c0.692,0.081,1.191,0.141,1.562,0.557c0.411,0.463,0.376,1.088,0.292,1.797c-0.028,0.245-0.035,0.577-0.046,0.963
					c-0.049,1.837-0.137,5.256-2.643,10.952C63.155,42.819,52.4,53.697,46.339,56.928c-1.172,0.779-2.898,1.766-4.287,2.559
					c-0.872,0.5-1.626,0.93-1.925,1.129C39.561,60.994,38.726,61.221,37.896,61.221z M27.744,49.402
					c3.19,3.838,7.832,9.053,8.8,9.777c0.336,0.252,0.814,0.391,1.353,0.391c0.609,0,1.091-0.176,1.316-0.326
					c0.345-0.23,1.085-0.652,2.02-1.188c1.382-0.789,3.101-1.771,4.226-2.521l0.072-0.045c5.712-3.021,16.285-13.719,19.275-20.513
					c2.375-5.398,2.454-8.485,2.501-10.33c0.013-0.426,0.021-0.794,0.061-1.111c0.024-0.221,0.035-0.367,0.04-0.467
					c-0.127-0.019-0.295-0.04-0.452-0.059c-0.227-0.025-0.49-0.057-0.794-0.103c-0.13-0.02-0.384-0.042-0.863-0.042
					c-2.971,0-9.455,0.825-12.458,2.07c-3.735,1.549-9.501,5.226-13.128,8.369C32.944,39.411,27.72,46.668,27.667,46.74
					C27.392,47.121,27.486,48.404,27.744,49.402z"/>
			</g>
		</g>
		<g>
			<g>
				<path fill="#FFFFFF" d="M30.436,70.35c-0.292,0-0.573-0.156-0.719-0.422c-0.185-0.332-0.119-0.746,0.158-1.004
					c0.183-0.172,0.427-0.389,0.719-0.646c1.774-1.572,5.469-4.842,6.576-8.094c0.146-0.43,0.615-0.66,1.046-0.514
					c0.431,0.148,0.661,0.615,0.514,1.047c-0.925,2.715-3.315,5.322-5.256,7.168c4.071-1.043,9.584-2.463,12.14-3.469
					c3.032-1.199,3.487-4.082,4.015-7.42c0.554-3.508,1.298-5.205,1.327-5.275c0.187-0.418,0.674-0.605,1.089-0.42
					c0.414,0.186,0.603,0.672,0.42,1.088l0,0c-0.008,0.016-0.693,1.602-1.208,4.863c-0.527,3.352-1.128,7.152-5.036,8.695
					c-2.674,1.055-8.32,2.504-12.44,3.561c-1.248,0.32-2.336,0.6-3.127,0.812C30.58,70.342,30.508,70.35,30.436,70.35z"/>
			</g>
		</g>
		<g>
			<g>
				<path fill="#FFFFFF" d="M16.769,54.486c-0.158,0-0.318-0.047-0.457-0.139c-0.322-0.213-0.452-0.623-0.312-0.982
					c1.386-3.592,5.089-12.845,5.752-14.026c0.505-0.894,2.38-3.83,5.401-4.083c0.643-0.053,1.526-0.102,2.462-0.153
					c2.013-0.112,5.76-0.321,6.372-0.652c0.365-0.273,0.868-0.19,1.143,0.173c0.272,0.364,0.187,0.89-0.18,1.162
					c-0.692,0.521-2.701,0.71-7.244,0.963c-0.925,0.051-1.798,0.099-2.413,0.15c-2.273,0.189-3.816,2.74-4.104,3.249
					c-0.44,0.786-2.719,6.375-4.433,10.696c4.074-3.193,7.492-4.357,7.662-4.414c0.433-0.143,0.898,0.09,1.043,0.521
					c0.146,0.432-0.088,0.898-0.521,1.043c-0.062,0.021-4.796,1.65-9.602,6.262C17.182,54.408,16.976,54.486,16.769,54.486z"/>
			</g>
		</g>
		<g>
			<g>
				<path fill="#FFFFFF" d="M63.815,38.825c-2.879-1.013-5.652-2.971-8.019-5.665c-2.546-2.899-4.01-8.542-4.071-8.781l1.598-0.408
					c0.014,0.054,1.429,5.501,3.715,8.103c2.178,2.48,4.711,4.277,7.322,5.196L63.815,38.825z"/>
			</g>
		</g>
		<g>
			<g>
				<path fill="#FFFFFF" d="M50.862,42.082c-2.342,0-4.247-1.906-4.247-4.247c0-2.343,1.905-4.248,4.247-4.248
					s4.247,1.905,4.247,4.248C55.109,40.175,53.204,42.082,50.862,42.082z M50.862,34.906c-1.615,0-2.929,1.313-2.929,2.929
					c0,1.614,1.313,2.928,2.929,2.928s2.929-1.313,2.929-2.928C53.791,36.219,52.478,34.906,50.862,34.906z"/>
			</g>
		</g>
		<g>
			<g>
				<path fill="#FFFFFF" d="M45.824,45.605c-1.811,0-3.284-1.472-3.284-3.283c0-1.812,1.474-3.287,3.284-3.287
					s3.285,1.475,3.285,3.287C49.109,44.133,47.635,45.605,45.824,45.605z M45.824,40.356c-1.083,0-1.966,0.882-1.966,1.967
					c0,1.082,0.883,1.966,1.966,1.966c1.085,0,1.967-0.884,1.967-1.966C47.791,41.238,46.909,40.356,45.824,40.356z"/>
			</g>
		</g>
		<g>
			<g>
				<path fill="#FFFFFF" d="M34.99,59.906c-0.805,0-1.733-0.236-2.411-0.834c-0.496-0.438-1.118-1.162-1.839-2.004
					c-0.369-0.43-0.756-0.879-1.143-1.309l-0.369-0.408c-1.115-1.234-2.379-2.633-2.845-3.586c-0.547-1.115-0.055-2.232,0.322-2.717
					l1.299,1.016l-0.648-0.508l0.655,0.5c-0.016,0.021-0.376,0.518-0.147,0.982c0.363,0.746,1.648,2.168,2.588,3.205l0.372,0.414
					c0.394,0.439,0.788,0.898,1.165,1.338c0.654,0.762,1.27,1.479,1.68,1.84c0.446,0.393,1.248,0.5,1.767,0.375l0.385,1.604
					C35.574,59.873,35.291,59.906,34.99,59.906z"/>
			</g>
		</g>
		<g>
			<g>
				<path fill="#FFFFFF" d="M24.786,61.965L24.786,61.965c-0.457,0-0.844-0.207-1.057-0.564c-0.288-0.477-0.224-1.111,0.187-1.881
					c1.259-2.344,4.551-6.355,9.788-11.926l0.249-0.266c1.078-1.154,5.036-1.633,6.223-1.752l0.083-0.004
					c0.367,0,1.035,0.074,1.387,0.564c0.206,0.283,0.259,0.648,0.141,0.996c-0.128,0.385-1.292,3.814-1.576,4.525
					c-1.023,2.561-6.918,6.016-12.547,9.062c-0.528,0.285-0.938,0.506-1.183,0.648C25.777,61.773,25.237,61.965,24.786,61.965z
					 M40.007,47.254c-2.074,0.236-4.43,0.75-4.85,1.199l-0.253,0.271c-6.026,6.408-8.433,9.66-9.375,11.287
					c0.041-0.021,0.083-0.045,0.127-0.07c0.253-0.146,0.677-0.375,1.224-0.672c2.686-1.453,10.859-5.873,11.799-8.223
					C38.879,50.549,39.62,48.383,40.007,47.254z"/>
			</g>
		</g>
	</g>
</g>
</svg>
