<?xml version="1.0" encoding="utf-8"?>
<!-- Generator: Adobe Illustrator 16.0.0, SVG Export Plug-In . SVG Version: 6.00 Build 0)  -->
<!DOCTYPE svg PUBLIC "-//W3C//DTD SVG 1.1//EN" "http://www.w3.org/Graphics/SVG/1.1/DTD/svg11.dtd">
<svg version="1.1" id="Layer_1" xmlns="http://www.w3.org/2000/svg" xmlns:xlink="http://www.w3.org/1999/xlink" x="0px" y="0px"
	 width="89px" height="89px" viewBox="0 0 89 89" enable-background="new 0 0 89 89" xml:space="preserve">
<g>
	<g>
		<g>
			<g>
				<g>
					<circle fill="#FFFFFF" cx="44.5" cy="44.478" r="43.993"/>
				</g>
			</g>
		</g>
	</g>
	<g>
		<defs>
			<circle id="SVGID_1_" cx="44.5" cy="44.548" r="43.968"/>
		</defs>
		<clipPath id="SVGID_2_">
			<use xlink:href="#SVGID_1_"  overflow="visible"/>
		</clipPath>
		
			<path clip-path="url(#SVGID_2_)" fill="none" stroke="#499CD5" stroke-width="2.5" stroke-linecap="round" stroke-linejoin="round" stroke-miterlimit="10" d="
			M68.924,92.234V70.608c0,0-0.442-2.529-1.581-3.604c-1.138-1.075-9.738-9.422-9.738-9.422s-1.516-1.58-4.109-1.58
			c-2.593,0-23.017,0-23.017,0s-5.69,0.821-5.69,5.438s0,45.527,0,45.527s0.379,5.943,5.248,5.943s33.387,0,33.387,0
			s5.184-0.063,5.184-5.185c0-5.122,0-8.094,0-8.094"/>
		<g clip-path="url(#SVGID_2_)">
			<text transform="matrix(1 0 0 1 33.4126 74.8486)" fill="#499CD5" font-family="'CeraGR-Bold'" font-size="19.1696">B2</text>
		</g>
		
			<line clip-path="url(#SVGID_2_)" fill="none" stroke="#499CD5" stroke-width="2.5" stroke-linecap="round" stroke-linejoin="round" stroke-miterlimit="10" x1="44.514" y1="27.592" x2="44.514" y2="50.1"/>
		
			<line clip-path="url(#SVGID_2_)" fill="none" stroke="#499CD5" stroke-width="2.5" stroke-linecap="round" stroke-linejoin="round" stroke-miterlimit="10" x1="32.544" y1="40.958" x2="44.5" y2="50.117"/>
		
			<line clip-path="url(#SVGID_2_)" fill="none" stroke="#499CD5" stroke-width="2.5" stroke-linecap="round" stroke-linejoin="round" stroke-miterlimit="10" x1="56.332" y1="40.878" x2="44.5" y2="50.196"/>
		
			<circle clip-path="url(#SVGID_2_)" fill="none" stroke="#499CD5" stroke-width="2.5" stroke-linecap="round" stroke-linejoin="round" stroke-miterlimit="10" cx="44.541" cy="21.112" r="6.48"/>
		
			<circle clip-path="url(#SVGID_2_)" fill="none" stroke="#499CD5" stroke-width="2.5" stroke-linecap="round" stroke-linejoin="round" stroke-miterlimit="10" cx="26.141" cy="34.987" r="6.479"/>
		
			<circle clip-path="url(#SVGID_2_)" fill="none" stroke="#499CD5" stroke-width="2.5" stroke-linecap="round" stroke-linejoin="round" stroke-miterlimit="10" cx="61.916" cy="35.132" r="6.479"/>
	</g>
</g>
</svg>
