<?xml version="1.0" encoding="utf-8"?>
<!-- Generator: Adobe Illustrator 16.0.0, SVG Export Plug-In . SVG Version: 6.00 Build 0)  -->
<!DOCTYPE svg PUBLIC "-//W3C//DTD SVG 1.1//EN" "https://www.w3.org/Graphics/SVG/1.1/DTD/svg11.dtd">
<svg version="1.1" id="Layer_1" xmlns="https://www.w3.org/2000/svg" xmlns:xlink="https://www.w3.org/1999/xlink" x="0px" y="0px"
	 width="89px" height="89px" viewBox="0 0 89 89" enable-background="new 0 0 89 89" xml:space="preserve">
<g>
	<g>
		<g>
			<g>
				<circle fill="#FFFFFF" cx="44.5" cy="44.498" r="43.994"/>
			</g>
		</g>
	</g>
	<g>
		<g>
			<g>
				<path fill="#499CD5" d="M71.354,23.149v32.145H17.87V23.149H71.354 M71.354,20.899H17.87c-1.242,0-2.25,1.007-2.25,2.25v32.145
					c0,1.242,1.008,2.25,2.25,2.25h53.484c1.244,0,2.25-1.008,2.25-2.25V23.149C73.604,21.906,72.598,20.899,71.354,20.899
					L71.354,20.899z"/>
			</g>
		</g>
		<g>
			<g>
				<path fill="#499CD5" d="M71.354,30.001v32.145H17.87V30.001H71.354 M71.354,27.751H17.87c-1.242,0-2.25,1.008-2.25,2.25v32.145
					c0,1.243,1.008,2.25,2.25,2.25h53.484c1.244,0,2.25-1.007,2.25-2.25V30.001C73.604,28.759,72.598,27.751,71.354,27.751
					L71.354,27.751z"/>
			</g>
		</g>
		<g>
			<path fill="#499CD5" d="M53.373,76.86h-16.76c-0.622,0-1.125-0.504-1.125-1.126v-4.419c0-0.621,0.503-1.125,1.125-1.125h16.76
				c0.621,0,1.125,0.504,1.125,1.125v4.419C54.498,76.356,53.994,76.86,53.373,76.86z M37.738,74.609h14.51V72.44h-14.51V74.609z"/>
		</g>
		<g>
			<path fill="#499CD5" d="M39.531,71.586c-0.074,0-0.148-0.007-0.225-0.021c-0.608-0.124-1.003-0.717-0.88-1.326l1.326-6.542
				c0.123-0.609,0.711-1.002,1.326-0.88c0.608,0.124,1.003,0.717,0.88,1.326l-1.326,6.542
				C40.525,71.218,40.055,71.586,39.531,71.586z"/>
		</g>
		<g>
			<path fill="#499CD5" d="M50.756,71.586c-0.525,0-0.994-0.368-1.102-0.901l-1.326-6.542c-0.125-0.608,0.27-1.202,0.879-1.325
				c0.605-0.13,1.201,0.27,1.324,0.879l1.326,6.542c0.125,0.608-0.27,1.202-0.879,1.325C50.904,71.579,50.83,71.586,50.756,71.586z"
				/>
		</g>
		<g>
			<path fill="#499CD5" d="M27.313,40.14h-2.296c-0.622,0-1.126-0.503-1.126-1.125c0-0.621,0.504-1.125,1.126-1.125h2.296
				c0.622,0,1.125,0.504,1.125,1.125C28.438,39.637,27.935,40.14,27.313,40.14z"/>
		</g>
		<g>
			<path fill="#499CD5" d="M51.889,40.14H30.231c-0.622,0-1.125-0.503-1.125-1.125c0-0.621,0.503-1.125,1.125-1.125h21.658
				c0.621,0,1.125,0.504,1.125,1.125C53.014,39.637,52.51,40.14,51.889,40.14z"/>
		</g>
		<g>
			<path fill="#499CD5" d="M27.313,47.671h-2.296c-0.622,0-1.126-0.504-1.126-1.125c0-0.622,0.504-1.125,1.126-1.125h2.296
				c0.622,0,1.125,0.503,1.125,1.125C28.438,47.167,27.935,47.671,27.313,47.671z"/>
		</g>
		<g>
			<path fill="#499CD5" d="M51.889,47.671H30.231c-0.622,0-1.125-0.504-1.125-1.125c0-0.622,0.503-1.125,1.125-1.125h21.658
				c0.621,0,1.125,0.503,1.125,1.125C53.014,47.167,52.51,47.671,51.889,47.671z"/>
		</g>
		<g>
			<path fill="#499CD5" d="M64.635,39.015c0,0.78-0.633,1.413-1.412,1.413h-4.598c-0.781,0-1.414-0.633-1.414-1.413l0,0
				c0-0.781,0.633-1.415,1.414-1.415h4.598C64.002,37.6,64.635,38.233,64.635,39.015L64.635,39.015z"/>
		</g>
		<g>
			<path fill="#499CD5" d="M64.635,46.546c0,0.779-0.633,1.413-1.412,1.413h-4.598c-0.781,0-1.414-0.634-1.414-1.413l0,0
				c0-0.782,0.633-1.415,1.414-1.415h4.598C64.002,45.131,64.635,45.764,64.635,46.546L64.635,46.546z"/>
		</g>
		<g>
			<polygon fill="#3F4E7B" points="59.551,40.141 62.076,47.959 63.221,44.927 66.889,48.261 67.881,47.298 64.303,43.899 
				67.369,42.787 			"/>
		</g>
	</g>
</g>
</svg>
