<?xml version="1.0" encoding="utf-8"?>
<!-- Generator: Adobe Illustrator 16.0.0, SVG Export Plug-In . SVG Version: 6.00 Build 0)  -->
<!DOCTYPE svg PUBLIC "-//W3C//DTD SVG 1.1//EN" "https://www.w3.org/Graphics/SVG/1.1/DTD/svg11.dtd">
<svg version="1.1" id="Layer_1" xmlns="https://www.w3.org/2000/svg" xmlns:xlink="https://www.w3.org/1999/xlink" x="0px" y="0px"
	 width="89px" height="89px" viewBox="0 0 89 89" enable-background="new 0 0 89 89" xml:space="preserve">
<g>
	<g>
		<g>
			<g>
				<circle fill="#499CD5" cx="44.5" cy="44.501" r="43.994"/>
			</g>
		</g>
	</g>
	<g>
		<g>
			<g>
				<path fill="#FFFFFF" d="M71.354,23.152v32.145H17.87V23.152H71.354 M71.354,20.902H17.87c-1.242,0-2.25,1.007-2.25,2.25v32.145
					c0,1.242,1.008,2.25,2.25,2.25h53.484c1.244,0,2.25-1.008,2.25-2.25V23.152C73.604,21.909,72.598,20.902,71.354,20.902
					L71.354,20.902z"/>
			</g>
		</g>
		<g>
			<g>
				<path fill="#FFFFFF" d="M71.354,30.004v32.145H17.87V30.004H71.354 M71.354,27.754H17.87c-1.242,0-2.25,1.008-2.25,2.25v32.145
					c0,1.243,1.008,2.25,2.25,2.25h53.484c1.244,0,2.25-1.007,2.25-2.25V30.004C73.604,28.762,72.598,27.754,71.354,27.754
					L71.354,27.754z"/>
			</g>
		</g>
		<g>
			<path fill="#FFFFFF" d="M53.373,76.863h-16.76c-0.622,0-1.125-0.504-1.125-1.126v-4.419c0-0.621,0.503-1.125,1.125-1.125h16.76
				c0.621,0,1.125,0.504,1.125,1.125v4.419C54.498,76.359,53.994,76.863,53.373,76.863z M37.738,74.612h14.51v-2.169h-14.51V74.612z
				"/>
		</g>
		<g>
			<path fill="#FFFFFF" d="M39.531,71.589c-0.074,0-0.148-0.007-0.225-0.021c-0.608-0.124-1.003-0.717-0.88-1.326l1.326-6.542
				c0.123-0.609,0.711-1.002,1.326-0.88c0.608,0.124,1.003,0.717,0.88,1.326l-1.326,6.542
				C40.525,71.221,40.055,71.589,39.531,71.589z"/>
		</g>
		<g>
			<path fill="#FFFFFF" d="M50.756,71.589c-0.525,0-0.994-0.368-1.102-0.901l-1.326-6.542c-0.125-0.608,0.27-1.202,0.879-1.325
				c0.605-0.13,1.201,0.27,1.324,0.879l1.326,6.542c0.125,0.608-0.27,1.202-0.879,1.325C50.904,71.582,50.83,71.589,50.756,71.589z"
				/>
		</g>
		<g>
			<path fill="#FFFFFF" d="M27.313,40.143h-2.296c-0.622,0-1.126-0.503-1.126-1.125c0-0.621,0.504-1.125,1.126-1.125h2.296
				c0.622,0,1.125,0.504,1.125,1.125C28.438,39.64,27.935,40.143,27.313,40.143z"/>
		</g>
		<g>
			<path fill="#FFFFFF" d="M51.889,40.143H30.231c-0.622,0-1.125-0.503-1.125-1.125c0-0.621,0.503-1.125,1.125-1.125h21.658
				c0.621,0,1.125,0.504,1.125,1.125C53.014,39.64,52.51,40.143,51.889,40.143z"/>
		</g>
		<g>
			<path fill="#FFFFFF" d="M27.313,47.674h-2.296c-0.622,0-1.126-0.504-1.126-1.125c0-0.622,0.504-1.125,1.126-1.125h2.296
				c0.622,0,1.125,0.503,1.125,1.125C28.438,47.17,27.935,47.674,27.313,47.674z"/>
		</g>
		<g>
			<path fill="#FFFFFF" d="M51.889,47.674H30.231c-0.622,0-1.125-0.504-1.125-1.125c0-0.622,0.503-1.125,1.125-1.125h21.658
				c0.621,0,1.125,0.503,1.125,1.125C53.014,47.17,52.51,47.674,51.889,47.674z"/>
		</g>
		<g>
			<path fill="#FFFFFF" d="M64.635,39.018c0,0.78-0.633,1.413-1.412,1.413h-4.598c-0.781,0-1.414-0.633-1.414-1.413l0,0
				c0-0.781,0.633-1.415,1.414-1.415h4.598C64.002,37.603,64.635,38.236,64.635,39.018L64.635,39.018z"/>
		</g>
		<g>
			<path fill="#FFFFFF" d="M64.635,46.549c0,0.779-0.633,1.413-1.412,1.413h-4.598c-0.781,0-1.414-0.634-1.414-1.413l0,0
				c0-0.782,0.633-1.415,1.414-1.415h4.598C64.002,45.134,64.635,45.767,64.635,46.549L64.635,46.549z"/>
		</g>
		<g>
			<polygon fill="#3F4E7B" points="59.551,40.144 62.076,47.962 63.221,44.93 66.889,48.264 67.881,47.301 64.303,43.902 
				67.369,42.79 			"/>
		</g>
	</g>
</g>
</svg>
