<?xml version="1.0" encoding="utf-8"?>
<!-- Generator: Adobe Illustrator 16.0.0, SVG Export Plug-In . SVG Version: 6.00 Build 0)  -->
<!DOCTYPE svg PUBLIC "-//W3C//DTD SVG 1.1//EN" "https://www.w3.org/Graphics/SVG/1.1/DTD/svg11.dtd">
<svg version="1.1" id="Layer_1" xmlns="https://www.w3.org/2000/svg" xmlns:xlink="https://www.w3.org/1999/xlink" x="0px" y="0px"
	 width="89px" height="89px" viewBox="0 0 89 89" enable-background="new 0 0 89 89" xml:space="preserve">
<g>
	<g>
		<g>
			<g>
				<circle fill="#499CD5" cx="44.5" cy="44.5" r="43.994"/>
			</g>
		</g>
	</g>
	<g id="Hxvuz1_4_">
		<g>
			<g>
				<path fill-rule="evenodd" clip-rule="evenodd" fill="#FFFFFF" d="M30.783,45.139c0-8.021-0.003-16.042,0.002-24.062
					c0.002-2.617,0.829-3.443,3.442-3.444c7.479-0.004,14.959-0.004,22.438,0c2.604,0.002,3.436,0.833,3.436,3.451
					c0.004,16.091,0.004,32.181-0.002,48.272c0,2.514-0.855,3.367-3.367,3.369c-7.528,0.006-15.057,0.006-22.585,0
					c-2.506-0.002-3.357-0.855-3.359-3.377C30.779,61.277,30.783,53.208,30.783,45.139z M58.295,65.771c0-14.355,0-29.594,0-43.897
					c-8.609,0-17.132,0-25.708,0c0,14.341,0,29.581,0,43.897C41.164,65.771,49.656,65.771,58.295,65.771z M45.495,68.473
					c0-0.002,0-0.004,0-0.006c-0.683,0-1.384-0.096-2.039,0.037c-0.364,0.074-0.651,0.529-0.972,0.812
					c0.286,0.275,0.56,0.771,0.861,0.789c1.406,0.084,2.824,0.082,4.23-0.006c0.293-0.018,0.553-0.535,0.826-0.822
					c-0.287-0.268-0.543-0.709-0.867-0.77C46.875,68.387,46.177,68.473,45.495,68.473z"/>
				<path fill-rule="evenodd" clip-rule="evenodd" fill="#FFFFFF" d="M45.495,68.473c0.682,0,1.38-0.086,2.04,0.035
					c0.324,0.061,0.58,0.502,0.867,0.77c-0.273,0.287-0.533,0.805-0.826,0.822c-1.406,0.088-2.824,0.09-4.23,0.006
					c-0.302-0.018-0.575-0.514-0.861-0.789c0.321-0.283,0.608-0.738,0.972-0.812c0.655-0.133,1.356-0.037,2.039-0.037
					C45.495,68.469,45.495,68.471,45.495,68.473z"/>
			</g>
		</g>
	</g>
	<path fill="#499CD5" d="M49.134,69.301c0,0.479-0.388,0.866-0.867,0.866h-5.649c-0.479,0-0.867-0.388-0.867-0.866l0,0
		c0-0.48,0.388-0.867,0.867-0.867h5.649C48.746,68.434,49.134,68.82,49.134,69.301L49.134,69.301z"/>
	<g>
		
			<line fill="none" stroke="#FFFFFF" stroke-width="2" stroke-linecap="round" stroke-linejoin="round" stroke-miterlimit="10" x1="45.441" y1="33.876" x2="45.441" y2="47.959"/>
		
			<polyline fill="none" stroke="#FFFFFF" stroke-width="2" stroke-linecap="round" stroke-linejoin="round" stroke-miterlimit="10" points="
			38.4,42.966 45.532,47.959 52.483,42.966 		"/>
		
			<polyline fill="none" stroke="#FFFFFF" stroke-width="2" stroke-linecap="round" stroke-linejoin="round" stroke-miterlimit="10" points="
			37.428,47.959 37.428,52.898 53.455,52.898 53.455,47.959 		"/>
	</g>
</g>
</svg>
